# Blender v2.78 (sub 0) OBJ File: 'hall.blend'
# www.blender.org
mtllib cube_maptest.mtl
o cubemap_Cube.016
v -183.852997 -74.067673 218.302612
v -183.852997 57.631187 218.302612
v -183.852997 -74.067673 -210.611282
v -183.852997 57.631187 -210.611282
v 332.750061 -74.067673 218.302612
v 332.750061 57.631187 218.302612
v 332.750061 -74.067673 -210.611282
v 332.750061 57.631187 -210.611282
vn 1.0000 0.0000 0.0000
vn 0.0000 0.0000 -1.0000
vn 0.0000 0.0000 1.0000
vn 0.0000 1.0000 0.0000
usemtl Material.002
s off
f 3//1 2//1 1//1
f 4//2 7//2 3//2
f 8//1 5//1 7//1
f 6//3 1//3 5//3
f 6//4 4//4 2//4
f 3//1 4//1 2//1
f 4//2 8//2 7//2
f 8//1 6//1 5//1
f 6//3 2//3 1//3
f 6//4 8//4 4//4
