# Blender v2.78 (sub 0) OBJ File: 'hall.blend'
# www.blender.org
mtllib hall_walk.mtl
o walk_Cube.011
v -54.934402 10.480379 8.017033
v -54.934402 10.480379 -17.755936
v -54.934402 0.181746 8.017033
v -54.934402 0.181746 -17.755936
v -54.934402 10.480379 -37.610008
v -54.934402 0.181746 -37.610008
v -43.839867 10.480379 8.017033
v -43.839867 10.480379 -17.755936
v -43.839867 0.181746 8.017033
v -43.839867 0.181746 -17.755936
v -43.839867 10.480379 -37.610008
v -43.839867 0.181746 -37.610008
v -43.839867 10.480379 -65.601250
v -54.934402 10.480379 -65.601250
v -43.839867 0.181746 -65.601250
v -54.934402 0.181746 -65.601250
vn 0.0000 0.0000 1.0000
vn -1.0000 0.0000 0.0000
vn 0.0000 -1.0000 0.0000
vn 0.0000 1.0000 0.0000
vn 0.0000 0.0000 -1.0000
vn 1.0000 0.0000 0.0000
usemtl (null)
s off
f 1//1 9//1 7//1
f 2//2 3//2 1//2
f 4//3 12//3 10//3
f 2//2 6//2 4//2
f 8//4 5//4 2//4
f 6//3 15//3 12//3
f 4//3 9//3 3//3
f 7//4 2//4 1//4
f 13//5 16//5 14//5
f 5//2 16//2 6//2
f 11//4 14//4 5//4
f 12//6 13//6 11//6
f 10//6 7//6 9//6
f 8//6 12//6 11//6
f 1//1 3//1 9//1
f 2//2 4//2 3//2
f 4//3 6//3 12//3
f 2//2 5//2 6//2
f 8//4 11//4 5//4
f 6//3 16//3 15//3
f 4//3 10//3 9//3
f 7//4 8//4 2//4
f 13//5 15//5 16//5
f 5//2 14//2 16//2
f 11//4 13//4 14//4
f 12//6 15//6 13//6
f 10//6 8//6 7//6
f 8//6 10//6 12//6
