# Blender v2.78 (sub 0) OBJ File: 'hall.blend'
# www.blender.org
mtllib hall_railing.mtl
o Geländer_Cube.022
v -54.275620 10.464146 7.948334
v -54.275620 16.543150 7.948334
v -54.275620 10.464146 7.257847
v -54.275620 16.543150 7.257847
v -53.585136 10.464146 7.948334
v -53.585136 16.543150 7.948334
v -53.585136 10.464146 7.257847
v -53.585136 16.543150 7.257847
v -33.652309 10.464145 7.948334
v -33.652309 16.543150 7.948334
v -33.652309 10.464145 7.257847
v -33.652309 16.543150 7.257847
v -32.961819 10.464145 7.948334
v -32.961819 16.543150 7.948334
v -32.961819 10.464145 7.257847
v -32.961819 16.543150 7.257847
v -33.652309 10.464145 -19.606846
v -33.652309 16.543150 -19.606846
v -33.652309 10.464145 -20.297333
v -33.652309 16.543150 -20.297333
v -32.961819 10.464145 -19.606846
v -32.961819 16.543150 -19.606846
v -32.961819 10.464145 -20.297333
v -32.961819 16.543150 -20.297333
v -44.729881 10.464146 -20.735168
v -44.729881 16.543150 -20.735168
v -44.729881 10.464146 -21.425655
v -44.729881 16.543150 -21.425655
v -44.039398 10.464146 -20.735168
v -44.039398 16.543150 -20.735168
v -44.039398 10.464146 -21.425655
v -44.039398 16.543150 -21.425655
v -44.729881 10.464146 -36.222954
v -44.729881 16.543150 -36.222954
v -44.729881 10.464146 -36.913441
v -44.729881 16.543150 -36.913441
v -44.039398 10.464146 -36.222954
v -44.039398 16.543150 -36.222954
v -44.039398 10.464146 -36.913441
v -44.039398 16.543150 -36.913441
v -44.729881 10.464146 -50.774452
v -44.729881 16.543150 -50.774452
v -44.729881 10.464146 -51.464943
v -44.729881 16.543150 -51.464943
v -44.039398 10.464146 -50.774452
v -44.039398 16.543150 -50.774452
v -44.039398 10.464146 -51.464943
v -44.039398 16.543150 -51.464943
v -44.729881 10.464146 -63.728767
v -44.729881 16.543150 -63.728767
v -44.729881 10.464146 -64.419250
v -44.729881 16.543150 -64.419250
v -44.039398 10.464146 -63.728767
v -44.039398 16.543150 -63.728767
v -44.039398 10.464146 -64.419250
v -44.039398 16.543150 -64.419250
v -33.652309 7.020212 -25.557032
v -33.652309 13.099217 -25.557032
v -33.652309 7.020212 -26.247520
v -33.652309 13.099217 -26.247520
v -32.961819 7.020212 -25.557032
v -32.961819 13.099217 -25.557032
v -32.961819 7.020212 -26.247520
v -32.961819 13.099217 -26.247520
v -33.652309 1.875938 -33.917416
v -33.652309 7.954944 -33.917416
v -33.652309 1.875938 -34.607906
v -33.652309 7.954944 -34.607906
v -32.961819 1.875938 -33.917416
v -32.961819 7.954944 -33.917416
v -32.961819 1.875938 -34.607906
v -32.961819 7.954944 -34.607906
v -44.452965 15.338385 -64.118668
v -44.452965 15.338385 -21.188398
v -44.452965 15.504502 -64.118668
v -44.452965 15.504502 -21.188398
v -44.286846 15.338385 -64.118668
v -44.286846 15.338385 -21.188398
v -44.286846 15.504502 -64.118668
v -44.286846 15.504502 -21.188398
v -44.452965 12.930590 -64.118668
v -44.452965 12.930590 -21.188398
v -44.452965 13.096707 -64.118668
v -44.452965 13.096707 -21.188398
v -44.286846 12.930590 -64.118668
v -44.286846 12.930590 -21.188398
v -44.286846 13.096707 -64.118668
v -44.286846 13.096707 -21.188398
v -33.368076 15.338385 -19.796333
v -33.368076 15.338385 7.415096
v -33.368076 15.504502 -19.796333
v -33.368076 15.504502 7.415096
v -33.201958 15.338385 -19.796333
v -33.201958 15.338385 7.415096
v -33.201958 15.504502 -19.796333
v -33.201958 15.504502 7.415096
v -33.368076 12.930590 -19.796333
v -33.368076 12.930590 7.415096
v -33.368076 13.096707 -19.796333
v -33.368076 13.096707 7.415096
v -33.201958 12.930590 -19.796333
v -33.201958 12.930590 7.415096
v -33.201958 13.096707 -19.796333
v -33.201958 13.096707 7.415096
v -53.868164 15.338385 7.696190
v -33.319534 15.338385 7.696186
v -53.868164 15.504502 7.696190
v -33.319534 15.504502 7.696186
v -53.868164 15.338385 7.530071
v -33.319534 15.338385 7.530071
v -53.868164 15.504502 7.530071
v -33.319534 15.504502 7.530071
v -53.868164 12.930590 7.696190
v -33.319534 12.930590 7.696186
v -53.868164 13.096707 7.696190
v -33.319534 13.096707 7.696186
v -53.868164 12.930590 7.530071
v -33.319534 12.930590 7.530071
v -53.868164 13.096707 7.530071
v -33.319534 13.096707 7.530071
v -33.368076 6.830860 -34.418564
v -33.368076 15.338385 -20.078325
v -33.368076 6.996977 -34.418564
v -33.368076 15.504502 -20.078325
v -33.201958 6.830860 -34.418564
v -33.201958 15.338385 -20.078325
v -33.201958 6.996977 -34.418564
v -33.201958 15.504502 -20.078325
v -33.368076 4.423065 -34.418564
v -33.368076 12.930590 -20.078325
v -33.368076 4.589182 -34.418564
v -33.368076 13.096707 -20.078325
v -33.201958 4.423065 -34.418564
v -33.201958 12.930590 -20.078325
v -33.201958 4.589182 -34.418564
v -33.201958 13.096707 -20.078325
vn -1.0000 0.0000 0.0000
vn 0.0000 0.0000 -1.0000
vn 1.0000 0.0000 0.0000
vn 0.0000 0.0000 1.0000
vn 0.0000 -1.0000 0.0000
vn 0.0000 1.0000 0.0000
vn 0.0000 0.8600 -0.5102
vn 0.0000 -0.8600 0.5102
usemtl None
s off
f 2//1 3//1 1//1
f 4//2 7//2 3//2
f 8//3 5//3 7//3
f 6//4 1//4 5//4
f 7//5 1//5 3//5
f 4//6 6//6 8//6
f 10//1 11//1 9//1
f 12//2 15//2 11//2
f 16//3 13//3 15//3
f 14//4 9//4 13//4
f 15//5 9//5 11//5
f 12//6 14//6 16//6
f 18//1 19//1 17//1
f 20//2 23//2 19//2
f 24//3 21//3 23//3
f 22//4 17//4 21//4
f 23//5 17//5 19//5
f 20//6 22//6 24//6
f 26//1 27//1 25//1
f 28//2 31//2 27//2
f 32//3 29//3 31//3
f 30//4 25//4 29//4
f 31//5 25//5 27//5
f 28//6 30//6 32//6
f 34//1 35//1 33//1
f 36//2 39//2 35//2
f 40//3 37//3 39//3
f 38//4 33//4 37//4
f 39//5 33//5 35//5
f 36//6 38//6 40//6
f 42//1 43//1 41//1
f 44//2 47//2 43//2
f 48//3 45//3 47//3
f 46//4 41//4 45//4
f 47//5 41//5 43//5
f 44//6 46//6 48//6
f 50//1 51//1 49//1
f 52//2 55//2 51//2
f 56//3 53//3 55//3
f 54//4 49//4 53//4
f 55//5 49//5 51//5
f 52//6 54//6 56//6
f 58//1 59//1 57//1
f 60//2 63//2 59//2
f 64//3 61//3 63//3
f 62//4 57//4 61//4
f 63//5 57//5 59//5
f 60//6 62//6 64//6
f 66//1 67//1 65//1
f 68//2 71//2 67//2
f 72//3 69//3 71//3
f 70//4 65//4 69//4
f 71//5 65//5 67//5
f 68//6 70//6 72//6
f 74//1 75//1 73//1
f 76//6 79//6 75//6
f 80//3 77//3 79//3
f 78//5 73//5 77//5
f 79//2 73//2 75//2
f 76//4 78//4 80//4
f 82//1 83//1 81//1
f 84//6 87//6 83//6
f 88//3 85//3 87//3
f 86//5 81//5 85//5
f 87//2 81//2 83//2
f 84//4 86//4 88//4
f 90//1 91//1 89//1
f 92//6 95//6 91//6
f 96//3 93//3 95//3
f 94//5 89//5 93//5
f 95//2 89//2 91//2
f 92//4 94//4 96//4
f 98//1 99//1 97//1
f 100//6 103//6 99//6
f 104//3 101//3 103//3
f 102//5 97//5 101//5
f 103//2 97//2 99//2
f 100//4 102//4 104//4
f 106//4 107//4 105//4
f 108//6 111//6 107//6
f 112//2 109//2 111//2
f 110//5 105//5 109//5
f 111//1 105//1 107//1
f 108//3 110//3 112//3
f 114//4 115//4 113//4
f 116//6 119//6 115//6
f 120//2 117//2 119//2
f 118//5 113//5 117//5
f 119//1 113//1 115//1
f 116//3 118//3 120//3
f 122//1 123//1 121//1
f 124//7 127//7 123//7
f 127//3 126//3 125//3
f 126//8 121//8 125//8
f 127//2 121//2 123//2
f 124//4 126//4 128//4
f 130//1 131//1 129//1
f 132//7 135//7 131//7
f 135//3 134//3 133//3
f 134//8 129//8 133//8
f 135//2 129//2 131//2
f 132//4 134//4 136//4
f 2//1 4//1 3//1
f 4//2 8//2 7//2
f 8//3 6//3 5//3
f 6//4 2//4 1//4
f 7//5 5//5 1//5
f 4//6 2//6 6//6
f 10//1 12//1 11//1
f 12//2 16//2 15//2
f 16//3 14//3 13//3
f 14//4 10//4 9//4
f 15//5 13//5 9//5
f 12//6 10//6 14//6
f 18//1 20//1 19//1
f 20//2 24//2 23//2
f 24//3 22//3 21//3
f 22//4 18//4 17//4
f 23//5 21//5 17//5
f 20//6 18//6 22//6
f 26//1 28//1 27//1
f 28//2 32//2 31//2
f 32//3 30//3 29//3
f 30//4 26//4 25//4
f 31//5 29//5 25//5
f 28//6 26//6 30//6
f 34//1 36//1 35//1
f 36//2 40//2 39//2
f 40//3 38//3 37//3
f 38//4 34//4 33//4
f 39//5 37//5 33//5
f 36//6 34//6 38//6
f 42//1 44//1 43//1
f 44//2 48//2 47//2
f 48//3 46//3 45//3
f 46//4 42//4 41//4
f 47//5 45//5 41//5
f 44//6 42//6 46//6
f 50//1 52//1 51//1
f 52//2 56//2 55//2
f 56//3 54//3 53//3
f 54//4 50//4 49//4
f 55//5 53//5 49//5
f 52//6 50//6 54//6
f 58//1 60//1 59//1
f 60//2 64//2 63//2
f 64//3 62//3 61//3
f 62//4 58//4 57//4
f 63//5 61//5 57//5
f 60//6 58//6 62//6
f 66//1 68//1 67//1
f 68//2 72//2 71//2
f 72//3 70//3 69//3
f 70//4 66//4 65//4
f 71//5 69//5 65//5
f 68//6 66//6 70//6
f 74//1 76//1 75//1
f 76//6 80//6 79//6
f 80//3 78//3 77//3
f 78//5 74//5 73//5
f 79//2 77//2 73//2
f 76//4 74//4 78//4
f 82//1 84//1 83//1
f 84//6 88//6 87//6
f 88//3 86//3 85//3
f 86//5 82//5 81//5
f 87//2 85//2 81//2
f 84//4 82//4 86//4
f 90//1 92//1 91//1
f 92//6 96//6 95//6
f 96//3 94//3 93//3
f 94//5 90//5 89//5
f 95//2 93//2 89//2
f 92//4 90//4 94//4
f 98//1 100//1 99//1
f 100//6 104//6 103//6
f 104//3 102//3 101//3
f 102//5 98//5 97//5
f 103//2 101//2 97//2
f 100//4 98//4 102//4
f 106//4 108//4 107//4
f 108//6 112//6 111//6
f 112//2 110//2 109//2
f 110//5 106//5 105//5
f 111//1 109//1 105//1
f 108//3 106//3 110//3
f 114//4 116//4 115//4
f 116//6 120//6 119//6
f 120//2 118//2 117//2
f 118//5 114//5 113//5
f 119//1 117//1 113//1
f 116//3 114//3 118//3
f 122//1 124//1 123//1
f 124//7 128//7 127//7
f 127//3 128//3 126//3
f 126//8 122//8 121//8
f 127//2 125//2 121//2
f 124//4 122//4 126//4
f 130//1 132//1 131//1
f 132//7 136//7 135//7
f 135//3 136//3 134//3
f 134//8 130//8 129//8
f 135//2 133//2 129//2
f 132//4 130//4 134//4
