# Blender v2.78 (sub 0) OBJ File: 'hall.blend'
# www.blender.org
mtllib hall_loading_door.mtl
o Halle_Loading_Door_Cube.005
v -54.973866 21.613350 51.314899
v -54.973866 5.094681 51.314899
v -54.973866 21.613350 34.796307
v -54.973866 5.094681 34.796307
v -66.972427 21.613350 34.796307
v -66.972427 21.613350 51.314899
v -66.972427 5.094681 51.314899
v -66.972427 5.094681 34.796307
vn 1.0000 0.0000 0.0000
vn -1.0000 0.0000 0.0000
vn 0.0000 0.0000 -1.0000
vn 0.0000 0.0000 1.0000
vn 0.0000 -1.0000 0.0000
vn 0.0000 1.0000 0.0000
usemtl Material.001
s off
f 1//1 2//1 4//1 3//1
f 6//2 5//2 8//2 7//2
f 4//3 8//3 5//3 3//3
f 1//4 6//4 7//4 2//4
f 2//5 7//5 8//5 4//5
f 3//6 5//6 6//6 1//6
