# Blender v2.78 (sub 0) OBJ File: 'hall.blend'
# www.blender.org
mtllib hall_fenster.mtl
o Halle_Fenster_Cube.018
v 5.182205 21.491859 -66.393616
v 5.182205 39.727482 -66.393616
v -21.642139 21.491856 -66.485146
v -21.642139 39.738548 -66.485138
v 5.194710 21.491859 -70.057823
v 5.194710 39.727482 -70.057823
v -21.629635 21.491856 -70.149353
v -21.629635 39.738548 -70.149345
v 34.993073 21.491859 -66.393616
v 34.993073 39.727482 -66.393616
v 8.168728 21.491856 -66.485146
v 8.168728 39.738548 -66.485138
v 35.005577 21.491859 -70.057823
v 35.005577 39.727482 -70.057823
v 8.181232 21.491856 -70.149353
v 8.181232 39.738548 -70.149345
v 67.910393 21.491859 -66.393616
v 67.910393 39.727482 -66.393616
v 37.088470 21.491856 -66.485146
v 37.088470 39.738548 -66.485138
v 67.924759 21.491859 -70.057823
v 67.924759 39.727482 -70.057823
v 37.102840 21.491856 -70.149353
v 37.102840 39.738548 -70.149345
v 100.228226 21.491859 -66.393616
v 100.228226 39.727482 -66.393616
v 69.406311 21.491856 -66.485146
v 69.406311 39.738548 -66.485138
v 100.242599 21.491859 -70.057823
v 100.242599 39.727482 -70.057823
v 69.420677 21.491856 -70.149353
v 69.420677 39.738548 -70.149345
v 132.998718 21.491859 -66.393616
v 132.998718 39.727482 -66.393616
v 102.176788 21.491856 -66.485146
v 102.176788 39.738548 -66.485146
v 133.013077 21.491859 -70.057823
v 133.013077 39.727482 -70.057823
v 102.191162 21.491856 -70.149353
v 102.191162 39.738548 -70.149353
v 104.738739 21.491863 56.535805
v 104.738739 39.727486 56.535789
v 131.563080 21.491859 56.627312
v 131.563080 39.738548 56.627312
v 104.726227 21.491863 60.199997
v 104.726227 39.727486 60.199997
v 131.550583 21.491859 60.291534
v 131.550583 39.738548 60.291519
v 74.927872 21.491863 56.535812
v 74.927872 39.727486 56.535805
v 101.752213 21.491859 56.627327
v 101.752213 39.738548 56.627327
v 74.915367 21.491863 60.200012
v 74.915359 39.727486 60.200012
v 101.739708 21.491859 60.291534
v 101.739708 39.738548 60.291534
v 42.010551 21.491863 56.535812
v 42.010551 39.727486 56.535812
v 72.832474 21.491859 56.627342
v 72.832474 39.738548 56.627327
v 41.996181 21.491863 60.200027
v 41.996178 39.727486 60.200027
v 72.818100 21.491859 60.291534
v 72.818100 39.738548 60.291534
v 9.692711 21.491863 56.535828
v 9.692711 39.727486 56.535828
v 40.514633 21.491859 56.627342
v 40.514629 39.738548 56.627342
v 9.678341 21.491863 60.200043
v 9.678341 39.727486 60.200043
v 40.500267 21.491859 60.291550
v 40.500267 39.738548 60.291550
v -23.077778 21.491863 56.535835
v -23.077778 39.727486 56.535835
v 7.744148 21.491859 56.627350
v 7.744148 39.738548 56.627350
v -23.092144 21.491863 60.200043
v -23.092144 39.727486 60.200043
v 7.729782 21.491859 60.291565
v 7.729782 39.738548 60.291565
vt 0.2470 0.4378
vt 0.5401 0.5629
vt 0.5401 0.5629
vt 0.2470 0.1564
vt 0.2470 0.4378
vt 0.2470 0.1564
vt 0.5401 0.5629
vt 0.5401 0.5629
vt 0.2470 0.4378
vt 0.5401 0.5629
vt 0.5401 0.5629
vt 0.2470 0.1564
vt 0.2470 0.4378
vt 0.2470 0.1564
vt 0.5401 0.5629
vt 0.5401 0.5629
vt 0.2470 0.4378
vt 0.5401 0.5629
vt 0.5401 0.5629
vt 0.2470 0.1564
vt 0.2470 0.4378
vt 0.2470 0.1564
vt 0.5401 0.5629
vt 0.5401 0.5629
vt 0.2470 0.4378
vt 0.5401 0.5629
vt 0.5401 0.5629
vt 0.2470 0.1564
vt 0.2470 0.4378
vt 0.2470 0.1564
vt 0.5401 0.5629
vt 0.5401 0.5629
vt 0.2470 0.4378
vt 0.5401 0.5629
vt 0.5401 0.5629
vt 0.2470 0.1564
vt 0.2470 0.4378
vt 0.2470 0.1564
vt 0.5401 0.5629
vt 0.5401 0.5629
vt 0.2470 0.4378
vt 0.5401 0.5629
vt 0.5401 0.5629
vt 0.2470 0.1564
vt 0.2470 0.4378
vt 0.2470 0.1564
vt 0.5401 0.5629
vt 0.5401 0.5629
vt 0.2470 0.4378
vt 0.5401 0.5629
vt 0.5401 0.5629
vt 0.2470 0.1564
vt 0.2470 0.4378
vt 0.2470 0.1564
vt 0.5401 0.5629
vt 0.5401 0.5629
vt 0.2470 0.4378
vt 0.5401 0.5629
vt 0.5401 0.5629
vt 0.2470 0.1564
vt 0.2470 0.4378
vt 0.2470 0.1564
vt 0.5401 0.5629
vt 0.5401 0.5629
vt 0.2470 0.4378
vt 0.5401 0.5629
vt 0.5401 0.5629
vt 0.2470 0.1564
vt 0.2470 0.4378
vt 0.2470 0.1564
vt 0.5401 0.5629
vt 0.5401 0.5629
vt 0.2470 0.4378
vt 0.5401 0.5629
vt 0.5401 0.5629
vt 0.2470 0.1564
vt 0.2470 0.4378
vt 0.2470 0.1564
vt 0.5401 0.5629
vt 0.5401 0.5629
vn -0.0034 -0.0000 1.0000
vn 0.0034 0.0000 -1.0000
vn 0.0004 1.0000 0.0000
vn -1.0000 0.0000 -0.0034
vn 0.0000 -1.0000 0.0000
vn 1.0000 0.0000 0.0034
vn -0.0030 -0.0000 1.0000
vn 0.0030 0.0000 -1.0000
vn -1.0000 0.0000 -0.0039
vn 1.0000 0.0000 0.0039
vn -0.0004 1.0000 -0.0000
usemtl (null)
s off
f 3/1/1 1/2/1 2/3/1 4/4/1
f 7/5/2 8/6/2 6/7/2 5/8/2
f 2/3/3 6/7/3 8/6/3 4/4/3
f 4/4/4 8/6/4 7/5/4 3/1/4
f 3/1/5 7/5/5 5/8/5 1/2/5
f 1/2/6 5/8/6 6/7/6 2/3/6
f 11/9/1 9/10/1 10/11/1 12/12/1
f 15/13/2 16/14/2 14/15/2 13/16/2
f 10/11/3 14/15/3 16/14/3 12/12/3
f 12/12/4 16/14/4 15/13/4 11/9/4
f 11/9/5 15/13/5 13/16/5 9/10/5
f 9/10/6 13/16/6 14/15/6 10/11/6
f 19/17/7 17/18/7 18/19/7 20/20/7
f 23/21/8 24/22/8 22/23/8 21/24/8
f 18/19/3 22/23/3 24/22/3 20/20/3
f 20/20/9 24/22/9 23/21/9 19/17/9
f 19/17/5 23/21/5 21/24/5 17/18/5
f 17/18/10 21/24/10 22/23/10 18/19/10
f 27/25/7 25/26/7 26/27/7 28/28/7
f 31/29/8 32/30/8 30/31/8 29/32/8
f 26/27/3 30/31/3 32/30/3 28/28/3
f 28/28/9 32/30/9 31/29/9 27/25/9
f 27/25/5 31/29/5 29/32/5 25/26/5
f 25/26/10 29/32/10 30/31/10 26/27/10
f 35/33/7 33/34/7 34/35/7 36/36/7
f 39/37/8 40/38/8 38/39/8 37/40/8
f 34/35/3 38/39/3 40/38/3 36/36/3
f 36/36/9 40/38/9 39/37/9 35/33/9
f 35/33/5 39/37/5 37/40/5 33/34/5
f 33/34/10 37/40/10 38/39/10 34/35/10
f 43/41/2 41/42/2 42/43/2 44/44/2
f 47/45/1 48/46/1 46/47/1 45/48/1
f 42/43/11 46/47/11 48/46/11 44/44/11
f 44/44/6 48/46/6 47/45/6 43/41/6
f 43/41/5 47/45/5 45/48/5 41/42/5
f 41/42/4 45/48/4 46/47/4 42/43/4
f 51/49/2 49/50/2 50/51/2 52/52/2
f 55/53/1 56/54/1 54/55/1 53/56/1
f 50/51/11 54/55/11 56/54/11 52/52/11
f 52/52/6 56/54/6 55/53/6 51/49/6
f 51/49/5 55/53/5 53/56/5 49/50/5
f 49/50/4 53/56/4 54/55/4 50/51/4
f 59/57/8 57/58/8 58/59/8 60/60/8
f 63/61/7 64/62/7 62/63/7 61/64/7
f 58/59/11 62/63/11 64/62/11 60/60/11
f 60/60/10 64/62/10 63/61/10 59/57/10
f 59/57/5 63/61/5 61/64/5 57/58/5
f 57/58/9 61/64/9 62/63/9 58/59/9
f 67/65/8 65/66/8 66/67/8 68/68/8
f 71/69/7 72/70/7 70/71/7 69/72/7
f 66/67/11 70/71/11 72/70/11 68/68/11
f 68/68/10 72/70/10 71/69/10 67/65/10
f 67/65/5 71/69/5 69/72/5 65/66/5
f 65/66/9 69/72/9 70/71/9 66/67/9
f 75/73/8 73/74/8 74/75/8 76/76/8
f 79/77/7 80/78/7 78/79/7 77/80/7
f 74/75/11 78/79/11 80/78/11 76/76/11
f 76/76/10 80/78/10 79/77/10 75/73/10
f 75/73/5 79/77/5 77/80/5 73/74/5
f 73/74/9 77/80/9 78/79/9 74/75/9
