# Blender v2.78 (sub 0) OBJ File: 'hall.blend'
# www.blender.org
mtllib hall_stairs.mtl
o Stairs_Cube.012
v -32.745327 10.477976 8.017035
v -32.745327 10.477976 -17.755934
v -32.745323 0.179342 8.017035
v -32.745323 0.179342 -17.755934
v -43.839863 10.477976 8.017035
v -43.839863 10.477976 -17.755934
v -43.839859 0.179342 8.017035
v -43.839859 0.179342 -17.755934
v -32.764526 10.477976 -17.755934
v -32.764526 0.179342 -17.755934
v -43.859058 10.477976 -17.755934
v -43.859058 0.179342 -17.755934
v -32.764526 8.761538 -17.755934
v -32.764526 7.045098 -17.755934
v -32.764526 5.328659 -17.755934
v -32.764526 3.612220 -17.755934
v -32.764526 1.895782 -17.755934
v -43.859058 8.761538 -17.755934
v -43.859058 7.045098 -17.755934
v -43.859058 5.328659 -17.755934
v -43.859058 3.612220 -17.755934
v -43.859058 1.895782 -17.755934
v -32.764526 0.179342 -20.592230
v -32.764526 0.179342 -23.428526
v -32.764526 0.179342 -26.264822
v -32.764526 0.179342 -29.101118
v -32.764526 0.179342 -31.937412
v -32.764526 0.179342 -34.773712
v -32.764526 10.477976 -20.592230
v -43.859058 10.477976 -20.592230
v -43.859058 0.179342 -20.592230
v -43.859058 0.179342 -23.428526
v -43.859058 0.179342 -26.264822
v -43.859058 0.179342 -29.101118
v -43.859058 0.179342 -31.937412
v -43.859058 0.179342 -34.773712
v -43.859058 8.761538 -23.428526
v -43.859058 8.761538 -20.592230
v -43.859058 7.045098 -26.264822
v -43.859058 7.045098 -23.428526
v -43.859058 7.045098 -20.592230
v -43.859058 5.328659 -29.101120
v -43.859058 5.328659 -26.264822
v -43.859058 5.328659 -23.428526
v -43.859058 5.328659 -20.592230
v -43.859058 3.612220 -31.937416
v -43.859058 3.612220 -29.101120
v -43.859058 3.612220 -26.264822
v -43.859058 3.612220 -23.428526
v -43.859058 3.612220 -20.592230
v -43.859058 1.895782 -34.773712
v -43.859058 1.895782 -31.937416
v -43.859058 1.895782 -29.101120
v -43.859058 1.895782 -26.264822
v -43.859058 1.895782 -23.428526
v -43.859058 1.895782 -20.592230
v -32.764526 8.761538 -20.592230
v -32.764526 8.761538 -23.428526
v -32.764526 7.045098 -20.592230
v -32.764526 7.045098 -23.428526
v -32.764526 7.045098 -26.264822
v -32.764526 5.328659 -20.592230
v -32.764526 5.328659 -23.428526
v -32.764526 5.328659 -26.264822
v -32.764526 5.328659 -29.101118
v -32.764526 3.612220 -20.592230
v -32.764526 3.612220 -23.428526
v -32.764526 3.612220 -26.264822
v -32.764526 3.612220 -29.101118
v -32.764526 3.612220 -31.937412
v -32.764526 1.895782 -20.592230
v -32.764526 1.895782 -23.428526
v -32.764526 1.895782 -26.264822
v -32.764526 1.895782 -29.101118
v -32.764526 1.895782 -31.937412
v -32.764526 1.895782 -34.773712
vn 0.0000 1.0000 0.0000
vn 0.0000 -1.0000 0.0000
vn 1.0000 0.0000 0.0000
vn 0.0000 0.0000 1.0000
vn 0.0000 0.0000 -1.0000
vn -1.0000 0.0000 0.0000
usemtl (null)
s off
f 1//1 6//1 5//1
f 8//2 3//2 7//2
f 1//3 4//3 2//3
f 1//4 7//4 3//4
f 8//5 2//5 4//5
f 5//6 8//6 7//6
f 31//6 22//6 56//6
f 9//4 18//4 13//4
f 17//4 12//4 10//4
f 16//4 22//4 17//4
f 15//4 21//4 16//4
f 14//4 20//4 15//4
f 13//4 19//4 14//4
f 38//6 11//6 30//6
f 41//6 18//6 38//6
f 45//6 19//6 41//6
f 50//6 20//6 45//6
f 56//6 21//6 50//6
f 17//3 66//3 16//3
f 71//3 67//3 66//3
f 72//3 68//3 67//3
f 73//3 69//3 68//3
f 74//3 70//3 69//3
f 16//3 62//3 15//3
f 66//3 63//3 62//3
f 67//3 64//3 63//3
f 68//3 65//3 64//3
f 15//3 59//3 14//3
f 62//3 60//3 59//3
f 63//3 61//3 60//3
f 14//3 57//3 13//3
f 59//3 58//3 57//3
f 13//3 29//3 9//3
f 52//6 47//6 46//6
f 53//6 48//6 47//6
f 54//6 49//6 48//6
f 55//6 50//6 49//6
f 47//6 43//6 42//6
f 48//6 44//6 43//6
f 49//6 45//6 44//6
f 43//6 40//6 39//6
f 44//6 41//6 40//6
f 40//6 38//6 37//6
f 76//5 36//5 51//5
f 52//1 76//1 51//1
f 75//5 46//5 70//5
f 47//1 70//1 46//1
f 69//5 42//5 65//5
f 43//1 65//1 42//1
f 36//6 52//6 51//6
f 35//6 53//6 52//6
f 34//6 54//6 53//6
f 33//6 55//6 54//6
f 32//6 56//6 55//6
f 12//2 23//2 10//2
f 31//2 24//2 23//2
f 32//2 25//2 24//2
f 33//2 26//2 25//2
f 34//2 27//2 26//2
f 35//2 28//2 27//2
f 9//1 30//1 11//1
f 64//5 39//5 61//5
f 40//1 61//1 39//1
f 60//5 37//5 58//5
f 38//1 58//1 37//1
f 57//5 30//5 29//5
f 10//3 71//3 17//3
f 23//3 72//3 71//3
f 24//3 73//3 72//3
f 25//3 74//3 73//3
f 26//3 75//3 74//3
f 27//3 76//3 75//3
f 1//1 2//1 6//1
f 8//2 4//2 3//2
f 1//3 3//3 4//3
f 1//4 5//4 7//4
f 8//5 6//5 2//5
f 5//6 6//6 8//6
f 31//6 12//6 22//6
f 9//4 11//4 18//4
f 17//4 22//4 12//4
f 16//4 21//4 22//4
f 15//4 20//4 21//4
f 14//4 19//4 20//4
f 13//4 18//4 19//4
f 38//6 18//6 11//6
f 41//6 19//6 18//6
f 45//6 20//6 19//6
f 50//6 21//6 20//6
f 56//6 22//6 21//6
f 17//3 71//3 66//3
f 71//3 72//3 67//3
f 72//3 73//3 68//3
f 73//3 74//3 69//3
f 74//3 75//3 70//3
f 16//3 66//3 62//3
f 66//3 67//3 63//3
f 67//3 68//3 64//3
f 68//3 69//3 65//3
f 15//3 62//3 59//3
f 62//3 63//3 60//3
f 63//3 64//3 61//3
f 14//3 59//3 57//3
f 59//3 60//3 58//3
f 13//3 57//3 29//3
f 52//6 53//6 47//6
f 53//6 54//6 48//6
f 54//6 55//6 49//6
f 55//6 56//6 50//6
f 47//6 48//6 43//6
f 48//6 49//6 44//6
f 49//6 50//6 45//6
f 43//6 44//6 40//6
f 44//6 45//6 41//6
f 40//6 41//6 38//6
f 76//5 28//5 36//5
f 52//1 75//1 76//1
f 75//5 52//5 46//5
f 47//1 69//1 70//1
f 69//5 47//5 42//5
f 43//1 64//1 65//1
f 36//6 35//6 52//6
f 35//6 34//6 53//6
f 34//6 33//6 54//6
f 33//6 32//6 55//6
f 32//6 31//6 56//6
f 12//2 31//2 23//2
f 31//2 32//2 24//2
f 32//2 33//2 25//2
f 33//2 34//2 26//2
f 34//2 35//2 27//2
f 35//2 36//2 28//2
f 9//1 29//1 30//1
f 64//5 43//5 39//5
f 40//1 60//1 61//1
f 60//5 40//5 37//5
f 38//1 57//1 58//1
f 57//5 38//5 30//5
f 10//3 23//3 71//3
f 23//3 24//3 72//3
f 24//3 25//3 73//3
f 25//3 26//3 74//3
f 26//3 27//3 75//3
f 27//3 28//3 76//3
