# Blender v2.78 (sub 0) OBJ File: 'gabelstapler.blend'
# www.blender.org
mtllib Regal_platte.mtl
o regal_platte_Cube.002
v -11.000000 -5.290206 -5.500000
v -11.000000 -4.305634 -5.500000
v -13.000000 -4.305634 -5.500000
v -13.000000 -5.290206 -5.500000
v -11.000000 -4.305634 -7.500000
v -11.000000 -5.290206 -7.500000
v -11.000000 -5.290206 5.500001
v -11.000000 -4.305634 5.500001
v -13.000000 -4.305634 5.500001
v -13.000000 -5.290206 5.500001
v -11.000000 -4.305634 7.500000
v -11.000000 -5.290206 7.500000
v -11.000000 -5.290206 0.000000
v -11.000000 -4.305634 0.000000
v -13.000000 -4.305634 0.000001
v -13.000000 -5.290206 0.000001
v 11.000000 -5.290206 -5.500001
v 11.000000 -4.305634 -5.500001
v 13.000000 -4.305634 -5.500001
v 13.000000 -5.290206 -5.500001
v 11.000000 -4.305634 -7.500000
v 11.000000 -5.290206 -7.500000
v -0.000000 -5.290206 -5.500000
v -0.000000 -4.305634 -5.500000
v -0.000000 -4.305634 -7.500000
v -0.000000 -5.290206 -7.500000
v 11.000000 -5.290206 5.500000
v 11.000000 -4.305634 5.500000
v 13.000000 -4.305634 5.500000
v 13.000000 -5.290206 5.500000
v 11.000000 -4.305634 7.500000
v 11.000000 -5.290206 7.500000
v 0.000000 -5.290206 5.500000
v 0.000000 -4.305634 5.500000
v 0.000000 -4.305634 7.500000
v 0.000000 -5.290206 7.500000
v 11.000000 -5.290206 -0.000000
v 11.000000 -4.305634 -0.000000
v 13.000000 -4.305634 -0.000001
v 13.000000 -5.290206 -0.000001
v 0.000000 -5.290206 0.000000
v 0.000000 -4.305634 0.000000
v 0.000000 -5.290206 0.000000
v 0.000000 -4.305634 0.000000
v 0.000000 -5.290206 0.000000
v 0.000000 -4.305634 0.000000
vn 0.0000 1.0000 0.0000
vn 0.0000 0.0000 1.0000
vn 0.0000 -1.0000 0.0000
vn -0.0000 0.0000 -1.0000
vn -1.0000 0.0000 0.0000
vn 1.0000 0.0000 0.0000
usemtl None
s off
f 2//1 25//1 5//1
f 3//1 14//1 2//1
f 1//2 43//2 41//2
f 6//3 23//3 1//3
f 5//4 26//4 6//4
f 4//5 15//5 3//5
f 1//3 16//3 4//3
f 13//2 41//2 45//2
f 24//2 42//2 44//2
f 2//2 46//2 42//2
f 35//1 8//1 11//1
f 14//1 9//1 8//1
f 7//3 43//3 33//3
f 33//3 12//3 7//3
f 36//2 11//2 12//2
f 15//5 10//5 9//5
f 16//3 7//3 10//3
f 13//3 41//3 7//3
f 34//1 42//1 8//1
f 8//1 46//1 14//1
f 25//1 18//1 21//1
f 38//1 19//1 18//1
f 17//3 43//3 23//3
f 23//3 22//3 17//3
f 26//4 21//4 22//4
f 39//6 20//6 19//6
f 40//3 17//3 20//3
f 37//3 41//3 17//3
f 24//1 42//1 18//1
f 18//1 46//1 38//1
f 28//1 35//1 31//1
f 29//1 38//1 28//1
f 27//2 43//2 41//2
f 32//3 33//3 27//3
f 31//2 36//2 32//2
f 30//6 39//6 29//6
f 27//3 40//3 30//3
f 37//2 41//2 45//2
f 34//2 42//2 44//2
f 28//2 46//2 42//2
f 2//1 24//1 25//1
f 3//1 15//1 14//1
f 1//3 23//3 43//3
f 6//3 26//3 23//3
f 5//4 25//4 26//4
f 4//5 16//5 15//5
f 1//3 13//3 16//3
f 13//3 1//3 41//3
f 24//1 2//1 42//1
f 2//1 14//1 46//1
f 35//1 34//1 8//1
f 14//1 15//1 9//1
f 7//2 41//2 43//2
f 33//3 36//3 12//3
f 36//2 35//2 11//2
f 15//5 16//5 10//5
f 16//3 13//3 7//3
f 13//2 45//2 41//2
f 34//2 44//2 42//2
f 8//2 42//2 46//2
f 25//1 24//1 18//1
f 38//1 39//1 19//1
f 17//2 41//2 43//2
f 23//3 26//3 22//3
f 26//4 25//4 21//4
f 39//6 40//6 20//6
f 40//3 37//3 17//3
f 37//2 45//2 41//2
f 24//2 44//2 42//2
f 18//2 42//2 46//2
f 28//1 34//1 35//1
f 29//1 39//1 38//1
f 27//3 33//3 43//3
f 32//3 36//3 33//3
f 31//2 35//2 36//2
f 30//6 40//6 39//6
f 27//3 37//3 40//3
f 37//3 27//3 41//3
f 34//1 28//1 42//1
f 28//1 38//1 46//1
