# Blender v2.78 (sub 0) OBJ File: 'gabelstapler.blend'
# www.blender.org
mtllib europalette.mtl
o palette_Object001
v 2.792531 0.936981 1.934227
v 2.792531 0.936981 2.891775
v 2.699447 0.936981 3.044981
v -2.792529 0.936981 2.891775
v -2.699445 0.936981 3.044981
v -2.792529 0.936981 1.934227
v -2.699445 1.105500 3.044981
v 2.699447 1.105500 3.044981
v 2.792531 1.105500 2.891775
v 2.792531 1.105500 1.934227
v -2.792529 1.105500 1.934227
v -2.792529 1.105500 2.891775
v -2.792529 0.936981 1.627814
v -2.792529 0.936981 0.861784
v 2.792531 0.936981 0.861784
v 2.792531 0.936981 1.627814
v -2.792529 1.105500 1.627814
v 2.792531 1.105500 1.627814
v 2.792531 1.105500 0.861784
v -2.792529 1.105500 0.861784
v -2.792529 0.936981 0.555371
v -2.792529 0.936981 -0.555383
v 2.792531 0.936981 -0.555383
v 2.792531 0.936981 0.555371
v -2.792529 1.105500 0.555371
v 2.792531 1.105500 0.555371
v 2.792531 1.105500 -0.555383
v -2.792529 1.105500 -0.555383
v -2.792529 0.936981 -0.861795
v -2.792529 0.936981 -1.627826
v 2.792531 0.936981 -1.627826
v 2.792531 0.936981 -0.861795
v -2.792529 1.105500 -0.861795
v 2.792531 1.105500 -0.861795
v 2.792531 1.105500 -1.627826
v -2.792529 1.105500 -1.627826
v -2.699445 0.936981 -3.044973
v 2.699447 0.936981 -3.044973
v 2.792531 0.936981 -2.891767
v -2.792529 0.936981 -1.934238
v 2.792531 0.936981 -1.934238
v -2.792529 0.936981 -2.891767
v 2.699447 1.105500 -3.044973
v -2.699445 1.105500 -3.044973
v -2.792529 1.105500 -2.891767
v -2.792529 1.105500 -1.934238
v 2.792531 1.105500 -1.934238
v 2.792531 1.105500 -2.891767
v 2.117665 0.768443 -3.044973
v 2.699447 0.768443 -3.044973
v 2.792531 0.768443 -2.891767
v 2.699447 0.768442 3.044981
v 2.792531 0.768442 2.891775
v 2.117665 0.768442 3.044981
v 2.117665 0.936981 -3.044973
v 2.117665 0.936981 3.044981
v 2.117665 0.170950 -2.278942
v 2.792531 0.170950 -2.278942
v 2.792531 0.768443 -2.278942
v 2.117665 0.768443 -2.278942
v 2.792531 0.170950 -2.891767
v 2.699447 0.170950 -3.044973
v 2.117665 0.170950 -3.044973
v -2.699445 0.002412 -3.044973
v 2.699447 0.002412 -3.044973
v 2.792531 0.002412 -2.891767
v -2.792529 0.002412 -2.278942
v 2.792531 0.002412 -2.278942
v -2.792529 0.002412 -2.891767
v -2.699445 0.170950 -3.044973
v -2.792529 0.170950 -2.891767
v -2.792529 0.170950 -2.278942
v 2.117665 0.170950 0.555371
v 2.792531 0.170950 0.555371
v 2.792531 0.768442 0.555371
v 2.117665 0.768442 0.555371
v 2.792531 0.170950 -0.555383
v 2.792531 0.768442 -0.555383
v 2.117665 0.170950 -0.555383
v 2.117665 0.768442 -0.555383
v -2.792529 0.002412 0.555371
v -2.792529 0.002412 -0.555383
v 2.792531 0.002412 -0.555383
v 2.792531 0.002412 0.555371
v -2.792529 0.170950 0.555371
v -2.792529 0.170950 -0.555383
v 2.792531 0.002411 2.278950
v 2.792531 0.002411 2.891775
v 2.699447 0.002411 3.044981
v -2.792529 0.002411 2.891775
v -2.699445 0.002411 3.044981
v -2.792529 0.002411 2.278950
v -2.699445 0.170950 3.044981
v 2.699447 0.170950 3.044981
v 2.792531 0.170950 2.891775
v 2.792531 0.170950 2.278950
v -2.792529 0.170950 2.278950
v -2.792529 0.170950 2.891775
v 2.117665 0.170950 3.044981
v 2.792531 0.768442 2.278950
v 2.117665 0.170950 2.278950
v 2.117665 0.768442 2.278950
v 0.337434 0.768442 3.044981
v -0.337432 0.768442 3.044981
v -0.337432 0.768443 -3.044973
v 0.337434 0.768443 -3.044973
v 0.337434 0.936981 3.044981
v 0.337434 0.936981 -3.044973
v -0.337432 0.936981 -3.044973
v -0.337432 0.936981 3.044981
v -2.792529 0.768442 2.891775
v -2.792529 0.768443 -2.891767
v -2.699445 0.768443 -3.044973
v -2.117675 0.768442 3.044981
v -2.117675 0.768443 -3.044973
v -2.699445 0.768442 3.044981
v -2.117675 0.936981 3.044981
v -2.117675 0.936981 -3.044973
v -0.337432 0.170950 3.044981
v 0.337434 0.170950 3.044981
v 0.337434 0.170950 2.278950
v 0.337434 0.768442 2.278950
v -0.337432 0.170950 2.278950
v -0.337432 0.768442 2.278950
v -0.337432 0.170950 0.555371
v 0.337434 0.170950 0.555371
v 0.337434 0.768442 0.555371
v -0.337432 0.768442 0.555371
v 0.337434 0.170950 -0.555383
v 0.337434 0.768442 -0.555383
v -0.337432 0.170950 -0.555383
v -0.337432 0.768442 -0.555383
v -0.337432 0.170950 -2.278942
v 0.337434 0.170950 -2.278942
v 0.337434 0.768443 -2.278942
v -0.337432 0.768443 -2.278942
v 0.337434 0.170950 -3.044973
v -0.337432 0.170950 -3.044973
v -2.117675 0.170950 -2.278942
v -2.117675 0.768443 -2.278942
v -2.792529 0.768443 -2.278942
v -2.117675 0.170950 -3.044973
v -2.117675 0.170950 0.555371
v -2.117675 0.768442 0.555371
v -2.792529 0.768442 0.555371
v -2.117675 0.170950 -0.555383
v -2.117675 0.768442 -0.555383
v -2.792529 0.768442 -0.555383
v -2.117675 0.170950 3.044981
v -2.117675 0.170950 2.278950
v -2.117675 0.768442 2.278950
v -2.792529 0.768442 2.278950
vt 0.0141 0.6248
vt 0.0141 0.6326
vt 0.0053 0.6326
vt 0.0053 0.6248
vt 0.8762 0.2831
vt 0.8679 0.2831
vt 0.8679 0.2740
vt 0.8762 0.2740
vt 0.6379 0.6903
vt 0.6517 0.6903
vt 0.6517 0.7422
vt 0.6379 0.7422
vt 0.0141 0.3817
vt 0.0141 0.3897
vt 0.0053 0.3897
vt 0.0053 0.3817
vt 0.0053 0.7701
vt 0.0053 0.7623
vt 0.0141 0.7623
vt 0.0141 0.7701
vt 0.6379 0.8523
vt 0.6517 0.8523
vt 0.6517 0.9042
vt 0.6379 0.9042
vt 0.5471 0.2740
vt 0.5554 0.2740
vt 0.5554 0.2831
vt 0.5471 0.2831
vt 0.0141 0.4071
vt 0.0141 0.4150
vt 0.0053 0.4150
vt 0.0053 0.4071
vt 0.5026 0.7623
vt 0.5026 0.7701
vt 0.4938 0.7701
vt 0.4938 0.7623
vt 0.8671 0.0037
vt 0.8753 0.0037
vt 0.8753 0.0128
vt 0.8671 0.0128
vt 0.6379 0.7980
vt 0.6517 0.7980
vt 0.6517 0.8498
vt 0.6379 0.8498
vt 0.4921 0.4150
vt 0.4921 0.4071
vt 0.5009 0.4071
vt 0.5009 0.4150
vt 0.5026 0.6248
vt 0.5026 0.6326
vt 0.4938 0.6326
vt 0.4938 0.6248
vt 0.5471 0.0037
vt 0.5554 0.0037
vt 0.5554 0.0128
vt 0.5471 0.0128
vt 0.6379 0.7439
vt 0.6517 0.7439
vt 0.6517 0.7957
vt 0.6379 0.7957
vt 0.5009 0.3817
vt 0.5009 0.3897
vt 0.4921 0.3897
vt 0.4921 0.3817
vt 0.0141 0.5676
vt 0.0141 0.5189
vt 0.0221 0.5112
vt 0.4938 0.5189
vt 0.4858 0.5112
vt 0.4938 0.5676
vt 0.4858 0.6326
vt 0.0221 0.6326
vt 0.0141 0.5762
vt 0.4938 0.5762
vt 0.0221 0.5026
vt 0.4858 0.5026
vt 0.0053 0.5762
vt 0.5026 0.5762
vt 0.4757 0.7755
vt 0.4757 0.8140
vt 0.0138 0.8140
vt 0.0138 0.7755
vt 0.4757 0.8610
vt 0.0138 0.8610
vt 0.0138 0.8225
vt 0.4757 0.8225
vt 0.4757 0.8695
vt 0.0138 0.8695
vt 0.0053 0.8610
vt 0.0053 0.8225
vt 0.4842 0.8225
vt 0.4842 0.8610
vt 0.5074 0.1519
vt 0.5074 0.2115
vt 0.0144 0.2115
vt 0.0144 0.1519
vt 0.5074 0.2801
vt 0.0144 0.2801
vt 0.0144 0.2205
vt 0.5074 0.2205
vt 0.5074 0.2891
vt 0.0144 0.2891
vt 0.0053 0.2801
vt 0.0053 0.2205
vt 0.5165 0.2205
vt 0.5165 0.2801
vt 0.4757 0.8756
vt 0.4757 0.9141
vt 0.0138 0.9141
vt 0.0138 0.8756
vt 0.4757 0.9610
vt 0.0138 0.9610
vt 0.0138 0.9225
vt 0.4757 0.9225
vt 0.4757 0.9695
vt 0.0138 0.9695
vt 0.0053 0.9610
vt 0.0053 0.9225
vt 0.4842 0.9225
vt 0.4842 0.9610
vt 0.4858 0.7701
vt 0.0221 0.7701
vt 0.4938 0.7137
vt 0.0141 0.7137
vt 0.0221 0.6487
vt 0.4858 0.6487
vt 0.4938 0.6564
vt 0.4938 0.7051
vt 0.0141 0.7051
vt 0.0141 0.6564
vt 0.0053 0.7137
vt 0.0221 0.6401
vt 0.4858 0.6401
vt 0.5026 0.7137
vt 0.5471 0.2049
vt 0.5471 0.1531
vt 0.5554 0.1448
vt 0.8762 0.1531
vt 0.8679 0.1448
vt 0.8762 0.2049
vt 0.5471 0.2657
vt 0.5471 0.2140
vt 0.8762 0.2140
vt 0.8762 0.2657
vt 0.5380 0.2657
vt 0.5380 0.2140
vt 0.8853 0.2140
vt 0.8853 0.2657
vt 0.7929 0.9042
vt 0.7068 0.9042
vt 0.7068 0.8523
vt 0.7929 0.8523
vt 0.5380 0.9042
vt 0.5380 0.8523
vt 0.8618 0.9042
vt 0.8618 0.8523
vt 0.4842 0.4955
vt 0.0221 0.4955
vt 0.0141 0.4875
vt 0.4921 0.4557
vt 0.0141 0.4557
vt 0.4921 0.4875
vt 0.0221 0.4071
vt 0.4842 0.4071
vt 0.4921 0.4469
vt 0.0141 0.4469
vt 0.0053 0.4469
vt 0.0221 0.3983
vt 0.4842 0.3983
vt 0.5009 0.4469
vt 0.6242 0.4864
vt 0.5380 0.4864
vt 0.5380 0.4401
vt 0.6242 0.4401
vt 0.8826 0.4864
vt 0.7965 0.4864
vt 0.7965 0.4401
vt 0.8826 0.4401
vt 0.7103 0.4864
vt 0.7103 0.4401
vt 0.5159 0.0037
vt 0.5159 0.0643
vt 0.0145 0.0643
vt 0.0145 0.0037
vt 0.5159 0.1340
vt 0.0145 0.1340
vt 0.0145 0.0735
vt 0.5159 0.0735
vt 0.5159 0.1432
vt 0.0145 0.1432
vt 0.0053 0.1340
vt 0.0053 0.0735
vt 0.5251 0.0735
vt 0.5251 0.1340
vt 0.0141 0.3411
vt 0.0141 0.3092
vt 0.0221 0.3013
vt 0.4921 0.3092
vt 0.4842 0.3013
vt 0.4921 0.3411
vt 0.4842 0.3897
vt 0.0221 0.3897
vt 0.0141 0.3499
vt 0.4921 0.3499
vt 0.0221 0.2925
vt 0.4842 0.2925
vt 0.0053 0.3499
vt 0.5009 0.3499
vt 0.7929 0.7422
vt 0.7068 0.7422
vt 0.7068 0.6903
vt 0.7929 0.6903
vt 0.7068 0.7422
vt 0.6517 0.7422
vt 0.6517 0.6903
vt 0.7068 0.6903
vt 0.6379 0.7422
vt 0.5380 0.7422
vt 0.5380 0.6903
vt 0.6379 0.6903
vt 0.8618 0.7422
vt 0.8618 0.6903
vt 0.8786 0.2984
vt 0.8786 0.3589
vt 0.5472 0.3589
vt 0.5472 0.2984
vt 0.8786 0.4285
vt 0.5472 0.4285
vt 0.5472 0.3680
vt 0.8786 0.3680
vt 0.5472 0.2892
vt 0.8786 0.2892
vt 0.5380 0.3589
vt 0.5380 0.2984
vt 0.8878 0.2984
vt 0.8878 0.3589
vt 0.8753 0.0210
vt 0.5471 0.0726
vt 0.8753 0.0726
vt 0.5471 0.0210
vt 0.8671 0.1416
vt 0.5554 0.1416
vt 0.5471 0.1333
vt 0.5471 0.0817
vt 0.8753 0.0817
vt 0.8753 0.1333
vt 0.8844 0.0210
vt 0.8844 0.0726
vt 0.5380 0.0726
vt 0.5380 0.0210
vt 0.6242 0.6326
vt 0.5380 0.6326
vt 0.5380 0.5863
vt 0.6242 0.5863
vt 0.8826 0.6326
vt 0.7965 0.6326
vt 0.7965 0.5863
vt 0.8826 0.5863
vt 0.7103 0.6326
vt 0.7103 0.5863
vt 0.6242 0.6811
vt 0.5380 0.6811
vt 0.5380 0.6348
vt 0.6242 0.6348
vt 0.8826 0.6811
vt 0.7965 0.6811
vt 0.7965 0.6348
vt 0.8826 0.6348
vt 0.7103 0.6811
vt 0.7103 0.6348
vt 0.6242 0.5358
vt 0.5380 0.5358
vt 0.5380 0.4895
vt 0.6242 0.4895
vt 0.8826 0.5358
vt 0.7965 0.5358
vt 0.7965 0.4895
vt 0.8826 0.4895
vt 0.7103 0.5358
vt 0.7103 0.4895
vt 0.7929 0.8498
vt 0.7068 0.8498
vt 0.7068 0.7980
vt 0.7929 0.7980
vt 0.6517 0.8498
vt 0.6517 0.7980
vt 0.6379 0.8498
vt 0.5380 0.8498
vt 0.5380 0.7980
vt 0.6379 0.7980
vt 0.8618 0.8498
vt 0.8618 0.7980
vt 0.6242 0.5844
vt 0.5380 0.5844
vt 0.5380 0.5381
vt 0.6242 0.5381
vt 0.8826 0.5844
vt 0.7965 0.5844
vt 0.7965 0.5381
vt 0.8826 0.5381
vt 0.7103 0.5844
vt 0.7103 0.5381
vt 0.7929 0.7957
vt 0.7068 0.7957
vt 0.7068 0.7439
vt 0.7929 0.7439
vt 0.6517 0.7957
vt 0.6517 0.7439
vt 0.6379 0.7957
vt 0.5380 0.7957
vt 0.5380 0.7439
vt 0.6379 0.7439
vt 0.8618 0.7957
vt 0.7929 0.7957
vt 0.7929 0.7439
vt 0.8618 0.7439
vn 0.8546 0.0000 0.5192
vn 0.8546 0.0000 -0.5192
vn -0.8546 0.0000 -0.5192
vn -0.8546 0.0000 0.5192
vn 0.0000 -1.0000 0.0000
vn 0.0000 1.0000 0.0000
vn 0.0000 0.0000 1.0000
vn 1.0000 0.0000 0.0000
vn 0.0000 0.0000 -1.0000
vn -1.0000 0.0000 0.0000
usemtl 07___Default
s off
f 9/1/1 8/2/1 3/3/1 2/4/1
f 52/5/1 53/6/1 2/7/1 3/8/1
f 53/9/1 52/10/1 94/11/1 95/12/1
f 95/13/1 94/14/1 89/15/1 88/16/1
f 43/17/2 48/18/2 39/19/2 38/20/2
f 50/21/2 51/22/2 61/23/2 62/24/2
f 38/25/2 39/26/2 51/27/2 50/28/2
f 62/29/2 61/30/2 66/31/2 65/32/2
f 45/33/3 44/34/3 37/35/3 42/36/3
f 42/37/3 37/38/3 113/39/3 112/40/3
f 112/41/3 113/42/3 70/43/3 71/44/3
f 71/45/3 70/46/3 64/47/3 69/48/3
f 4/49/4 5/50/4 7/51/4 12/52/4
f 5/53/4 4/54/4 111/55/4 116/56/4
f 98/57/4 93/58/4 116/59/4 111/60/4
f 90/61/4 91/62/4 93/63/4 98/64/4
s 1
f 1/65/5 2/66/5 3/67/5 4/68/5
f 3/67/5 5/69/5 4/68/5
f 1/65/5 4/68/5 6/70/5
f 7/71/6 8/72/6 9/1/6 10/73/6
f 7/71/6 10/73/6 11/74/6 12/52/6
f 5/69/7 3/67/7 8/75/7 7/76/7
f 2/4/8 1/77/8 10/73/8 9/1/8
f 1/65/9 6/70/9 11/74/9 10/73/9
f 6/78/10 4/49/10 12/52/10 11/74/10
f 13/79/5 14/80/5 15/81/5 16/82/5
f 17/83/6 18/84/6 19/85/6 20/86/6
f 13/87/7 16/88/7 18/84/7 17/83/7
f 16/89/8 15/90/8 19/85/8 18/84/8
f 15/81/9 14/80/9 20/86/9 19/85/9
f 14/91/10 13/92/10 17/83/10 20/86/10
f 21/93/5 22/94/5 23/95/5 24/96/5
f 25/97/6 26/98/6 27/99/6 28/100/6
f 21/101/7 24/102/7 26/98/7 25/97/7
f 24/103/8 23/104/8 27/99/8 26/98/8
f 23/95/9 22/94/9 28/100/9 27/99/9
f 22/105/10 21/106/10 25/97/10 28/100/10
f 29/107/5 30/108/5 31/109/5 32/110/5
f 33/111/6 34/112/6 35/113/6 36/114/6
f 29/115/7 32/116/7 34/112/7 33/111/7
f 32/117/8 31/118/8 35/113/8 34/112/8
f 31/109/9 30/108/9 36/114/9 35/113/9
f 30/119/10 29/120/10 33/111/10 36/114/10
f 37/121/5 38/122/5 39/19/5 40/123/5
f 39/19/5 41/124/5 40/123/5
f 37/121/5 40/123/5 42/36/5
f 43/125/6 44/126/6 45/127/6 46/128/6
f 43/125/6 46/128/6 47/129/6 48/130/6
f 40/123/7 41/124/7 47/129/7 46/128/7
f 41/124/8 39/19/8 48/18/8 47/131/8
f 38/132/9 37/133/9 44/126/9 43/125/9
f 42/36/10 40/123/10 46/134/10 45/33/10
f 49/135/5 50/136/5 51/137/5 52/138/5
f 51/137/5 53/139/5 52/138/5
f 49/135/5 52/138/5 54/140/5
f 2/7/6 39/26/6 38/141/6 55/142/6
f 2/7/6 55/142/6 56/143/6 3/144/6
f 53/6/8 51/27/8 39/26/8 2/7/8
f 50/145/9 49/146/9 55/142/9 38/141/9
f 49/135/10 54/140/10 56/143/10 55/142/10
f 54/147/7 52/148/7 3/144/7 56/143/7
f 57/149/7 58/150/7 59/151/7 60/152/7
f 58/150/8 61/23/8 51/22/8 59/151/8
f 62/24/9 63/153/9 49/154/9 50/21/9
f 63/155/10 57/149/10 60/152/10 49/156/10
f 64/157/5 65/158/5 66/159/5 67/160/5
f 66/159/5 68/161/5 67/160/5
f 64/157/5 67/160/5 69/162/5
f 62/163/6 70/164/6 71/45/6 72/165/6
f 62/163/6 72/165/6 58/166/6 61/30/6
f 67/160/7 68/161/7 58/166/7 72/165/7
f 68/167/8 66/31/8 61/30/8 58/166/8
f 65/168/9 64/169/9 70/164/9 62/163/9
f 69/48/10 67/170/10 72/165/10 71/45/10
f 73/171/7 74/172/7 75/173/7 76/174/7
f 74/175/8 77/176/8 78/177/8 75/178/8
f 77/176/9 79/179/9 80/180/9 78/177/9
f 79/179/10 73/171/10 76/174/10 80/180/10
f 81/181/5 82/182/5 83/183/5 84/184/5
f 85/185/6 74/186/6 77/187/6 86/188/6
f 81/189/7 84/190/7 74/186/7 85/185/7
f 84/191/8 83/192/8 77/187/8 74/186/8
f 83/183/9 82/182/9 86/188/9 77/187/9
f 82/193/10 81/194/10 85/185/10 86/188/10
f 87/195/5 88/196/5 89/197/5 90/198/5
f 89/197/5 91/199/5 90/198/5
f 87/195/5 90/198/5 92/200/5
f 93/201/6 94/202/6 95/13/6 96/203/6
f 93/201/6 96/203/6 97/204/6 98/64/6
f 91/199/7 89/197/7 94/205/7 93/206/7
f 88/16/8 87/207/8 96/203/8 95/13/8
f 87/195/9 92/200/9 97/204/9 96/203/9
f 92/208/10 90/61/10 98/64/10 97/204/10
f 99/209/7 94/210/7 52/211/7 54/212/7
f 95/213/8 96/214/8 100/215/8 53/216/8
f 96/217/9 101/218/9 102/219/9 100/220/9
f 101/221/10 99/209/10 54/212/10 102/222/10
f 103/223/5 104/224/5 105/225/5 106/226/5
f 107/227/6 108/228/6 109/229/6 110/230/6
f 103/223/8 106/226/8 108/231/8 107/232/8
f 106/226/9 105/225/9 109/233/9 108/234/9
f 105/225/10 104/224/10 110/230/10 109/229/10
f 104/224/7 103/223/7 107/235/7 110/236/7
f 111/55/5 112/40/5 113/237/5 114/238/5
f 113/237/5 115/239/5 114/238/5
f 111/55/5 114/238/5 116/240/5
f 42/241/6 4/242/6 5/243/6 117/244/6
f 42/241/6 117/244/6 118/245/6 37/246/6
f 114/238/8 115/239/8 118/245/8 117/244/8
f 115/239/9 113/237/9 37/247/9 118/248/9
f 112/40/10 111/55/10 4/54/10 42/37/10
f 116/240/7 114/238/7 117/249/7 5/250/7
f 119/251/7 120/252/7 103/253/7 104/254/7
f 120/255/8 121/256/8 122/257/8 103/258/8
f 121/256/9 123/259/9 124/260/9 122/257/9
f 123/259/10 119/251/10 104/254/10 124/260/10
f 125/261/7 126/262/7 127/263/7 128/264/7
f 126/265/8 129/266/8 130/267/8 127/268/8
f 129/266/9 131/269/9 132/270/9 130/267/9
f 131/269/10 125/261/10 128/264/10 132/270/10
f 133/271/7 134/272/7 135/273/7 136/274/7
f 134/275/8 137/276/8 106/277/8 135/278/8
f 137/276/9 138/279/9 105/280/9 106/277/9
f 138/279/10 133/271/10 136/274/10 105/280/10
f 72/281/7 139/282/7 140/283/7 141/284/7
f 139/282/8 142/285/8 115/286/8 140/283/8
f 142/287/9 70/288/9 113/289/9 115/290/9
f 71/291/10 72/281/10 141/284/10 112/292/10
f 85/293/7 143/294/7 144/295/7 145/296/7
f 143/297/8 146/298/8 147/299/8 144/300/8
f 146/298/9 86/301/9 148/302/9 147/299/9
f 86/301/10 85/293/10 145/296/10 148/302/10
f 93/303/7 149/304/7 114/305/7 116/306/7
f 149/304/8 150/307/8 151/308/8 114/305/8
f 150/309/9 97/310/9 152/311/9 151/312/9
f 97/313/10 98/314/10 111/315/10 152/316/10
