# Blender v2.78 (sub 0) OBJ File: 'gabelstapler_allesgenullt.blend'
# www.blender.org
mtllib stapler_Lampenhalter.mtl
o Lampenhalter_r_Cube.003
v 2.645608 9.610012 -3.483953
v 2.645608 9.610012 -2.646307
v 2.645608 9.923898 -2.646307
v 2.645608 9.923898 -3.483953
v 2.676713 9.610012 -2.646307
v 2.676713 9.923898 -2.646307
v 2.676713 9.610012 -3.483953
v 2.676713 9.923898 -3.483953
v 3.219172 9.610013 -3.483952
v 3.219172 9.610013 -2.646306
v 3.219172 9.923899 -2.646306
v 3.219172 9.923899 -3.483952
v 3.250276 9.610013 -2.646306
v 3.250276 9.923899 -2.646306
v 3.250276 9.610013 -3.483952
v 3.250276 9.923899 -3.483952
v 3.250276 9.610013 -3.515056
v 2.645608 9.610012 -3.515056
v 2.645608 9.923898 -3.515056
v 3.250276 9.923899 -3.515056
v 2.645608 9.610012 -3.483952
v 2.645608 9.923898 -3.483952
v 3.250276 9.610013 -3.483952
v 3.250276 9.923899 -3.483952
v 2.956718 9.735581 -3.495994
v 2.972544 9.735581 -3.406237
v 2.956718 9.735581 -3.404853
v 2.972544 10.341149 -3.406237
v 2.956718 10.341149 -3.404853
v 2.956718 10.341149 -3.495994
v 2.987890 9.735581 -3.410349
v 2.987890 10.341149 -3.410349
v 3.002288 9.735581 -3.417064
v 3.002288 10.341149 -3.417064
v 3.015302 9.735581 -3.426176
v 3.015302 10.341149 -3.426176
v 3.026536 9.735581 -3.437410
v 3.026536 10.341149 -3.437410
v 3.035648 9.735581 -3.450423
v 3.035648 10.341149 -3.450423
v 3.042362 9.735581 -3.464822
v 3.042362 10.341149 -3.464822
v 3.046474 9.735581 -3.480168
v 3.046474 10.341149 -3.480168
v 3.047859 9.735581 -3.495994
v 3.047859 10.341149 -3.495994
v 3.046474 9.735581 -3.511820
v 3.046474 10.341149 -3.511820
v 3.042362 9.735581 -3.527166
v 3.042362 10.341149 -3.527166
v 3.035648 9.735581 -3.541564
v 3.035648 10.341149 -3.541564
v 3.026536 9.735581 -3.554578
v 3.026536 10.341149 -3.554578
v 3.015302 9.735581 -3.565812
v 3.015302 10.341149 -3.565812
v 3.002288 9.735581 -3.574924
v 3.002288 10.341149 -3.574924
v 2.987890 9.735581 -3.581639
v 2.987890 10.341149 -3.581639
v 2.972544 9.735581 -3.585750
v 2.972544 10.341149 -3.585750
v 2.956718 9.735581 -3.587135
v 2.956718 10.341149 -3.587135
v 2.940891 9.735581 -3.585750
v 2.940891 10.341149 -3.585750
v 2.925545 9.735580 -3.581639
v 2.925545 10.341148 -3.581639
v 2.911147 9.735580 -3.574924
v 2.911147 10.341148 -3.574924
v 2.898133 9.735580 -3.565812
v 2.898133 10.341148 -3.565812
v 2.886899 9.735580 -3.554578
v 2.886899 10.341148 -3.554578
v 2.877787 9.735580 -3.541564
v 2.877787 10.341148 -3.541564
v 2.871073 9.735580 -3.527166
v 2.871073 10.341148 -3.527166
v 2.866961 9.735580 -3.511820
v 2.866961 10.341148 -3.511820
v 2.865577 9.735580 -3.495994
v 2.865577 10.341148 -3.495994
v 2.866961 9.735580 -3.480168
v 2.866961 10.341148 -3.480168
v 2.871073 9.735580 -3.464822
v 2.871073 10.341148 -3.464822
v 2.877787 9.735580 -3.450423
v 2.877787 10.341148 -3.450423
v 2.886899 9.735580 -3.437410
v 2.886899 10.341148 -3.437410
v 2.898133 9.735580 -3.426176
v 2.898133 10.341148 -3.426176
v 2.911147 9.735580 -3.417064
v 2.911147 10.341148 -3.417064
v 2.925545 9.735580 -3.410349
v 2.925545 10.341148 -3.410349
v 2.940891 9.735581 -3.406237
v 2.940891 10.341149 -3.406237
v 3.264597 9.756800 -3.066363
v 3.264597 9.838040 -3.019459
v 3.264597 9.756800 -2.972555
v 3.259226 9.842393 -3.016946
v 3.259226 9.756800 -2.967530
v 2.633843 9.842392 -3.016947
v 2.633843 9.756800 -2.967530
v 2.628472 9.838039 -3.019459
v 2.628472 9.756800 -2.972555
v 2.628472 9.756800 -3.066363
v 3.264597 9.838040 -3.113267
v 3.259226 9.842393 -3.115779
v 2.633843 9.842392 -3.115780
v 2.628472 9.838039 -3.113267
v 3.264597 9.756800 -3.160171
v 3.259226 9.756800 -3.165196
v 2.633843 9.756800 -3.165196
v 2.628472 9.756800 -3.160171
v 3.264597 9.675560 -3.113267
v 3.259226 9.671208 -3.115779
v 2.633843 9.671207 -3.115780
v 2.628472 9.675560 -3.113267
v 3.264597 9.675560 -3.019459
v 3.259226 9.671208 -3.016946
v 2.633843 9.671207 -3.016947
v 2.628472 9.675560 -3.019459
v -2.645611 9.610012 -3.483953
v -2.645611 9.610012 -2.646307
v -2.645611 9.923898 -2.646307
v -2.645611 9.923898 -3.483953
v -2.676715 9.610012 -2.646307
v -2.676715 9.923898 -2.646307
v -2.676715 9.610012 -3.483953
v -2.676715 9.923898 -3.483953
v -3.219174 9.610011 -3.483952
v -3.219174 9.610011 -2.646307
v -3.219174 9.923897 -2.646307
v -3.219174 9.923897 -3.483952
v -3.250278 9.610011 -2.646307
v -3.250278 9.923897 -2.646307
v -3.250278 9.610011 -3.483952
v -3.250278 9.923897 -3.483952
v -3.250278 9.610011 -3.515056
v -2.645611 9.610012 -3.515056
v -2.645611 9.923898 -3.515056
v -3.250278 9.923897 -3.515056
v -2.645611 9.610012 -3.483952
v -2.645611 9.923898 -3.483952
v -3.250278 9.610011 -3.483952
v -3.250278 9.923897 -3.483952
v -2.956721 9.735579 -3.495994
v -2.972547 9.735579 -3.406238
v -2.956721 9.735579 -3.404853
v -2.972547 10.341147 -3.406238
v -2.956721 10.341147 -3.404853
v -2.956721 10.341147 -3.495994
v -2.987893 9.735579 -3.410350
v -2.987893 10.341147 -3.410350
v -3.002291 9.735579 -3.417064
v -3.002291 10.341147 -3.417064
v -3.015305 9.735579 -3.426176
v -3.015305 10.341147 -3.426176
v -3.026539 9.735579 -3.437410
v -3.026539 10.341147 -3.437410
v -3.035651 9.735579 -3.450424
v -3.035651 10.341147 -3.450424
v -3.042365 9.735579 -3.464822
v -3.042365 10.341147 -3.464822
v -3.046477 9.735579 -3.480168
v -3.046477 10.341147 -3.480168
v -3.047862 9.735579 -3.495994
v -3.047862 10.341147 -3.495994
v -3.046477 9.735579 -3.511821
v -3.046477 10.341147 -3.511821
v -3.042365 9.735579 -3.527166
v -3.042365 10.341147 -3.527166
v -3.035651 9.735579 -3.541565
v -3.035651 10.341147 -3.541565
v -3.026539 9.735579 -3.554579
v -3.026539 10.341147 -3.554579
v -3.015305 9.735579 -3.565812
v -3.015305 10.341147 -3.565812
v -3.002291 9.735579 -3.574925
v -3.002291 10.341147 -3.574925
v -2.987893 9.735579 -3.581639
v -2.987893 10.341147 -3.581639
v -2.972547 9.735579 -3.585751
v -2.972547 10.341147 -3.585751
v -2.956721 9.735579 -3.587135
v -2.956721 10.341147 -3.587135
v -2.940894 9.735579 -3.585751
v -2.940894 10.341147 -3.585751
v -2.925548 9.735580 -3.581639
v -2.925548 10.341148 -3.581639
v -2.911150 9.735580 -3.574925
v -2.911150 10.341148 -3.574925
v -2.898136 9.735580 -3.565812
v -2.898136 10.341148 -3.565812
v -2.886902 9.735580 -3.554579
v -2.886902 10.341148 -3.554579
v -2.877790 9.735580 -3.541565
v -2.877790 10.341148 -3.541565
v -2.871076 9.735580 -3.527166
v -2.871076 10.341148 -3.527166
v -2.866964 9.735580 -3.511821
v -2.866964 10.341148 -3.511821
v -2.865579 9.735580 -3.495994
v -2.865579 10.341148 -3.495994
v -2.866964 9.735580 -3.480168
v -2.866964 10.341148 -3.480168
v -2.871076 9.735580 -3.464822
v -2.871076 10.341148 -3.464822
v -2.877790 9.735580 -3.450424
v -2.877790 10.341148 -3.450424
v -2.886902 9.735580 -3.437410
v -2.886902 10.341148 -3.437410
v -2.898136 9.735580 -3.426176
v -2.898136 10.341148 -3.426176
v -2.911150 9.735580 -3.417064
v -2.911150 10.341148 -3.417064
v -2.925548 9.735580 -3.410350
v -2.925548 10.341148 -3.410350
v -2.940894 9.735579 -3.406238
v -2.940894 10.341147 -3.406238
v -3.264600 9.756798 -3.066363
v -3.264600 9.838038 -3.019459
v -3.264600 9.756798 -2.972555
v -3.259229 9.842391 -3.016947
v -3.259229 9.756798 -2.967530
v -2.633846 9.842392 -3.016947
v -2.633846 9.756800 -2.967530
v -2.628475 9.838039 -3.019459
v -2.628475 9.756800 -2.972555
v -2.628475 9.756800 -3.066363
v -3.264600 9.838038 -3.113267
v -3.259229 9.842391 -3.115780
v -2.633846 9.842392 -3.115780
v -2.628475 9.838039 -3.113267
v -3.264600 9.756798 -3.160172
v -3.259229 9.756798 -3.165196
v -2.633846 9.756800 -3.165196
v -2.628475 9.756800 -3.160171
v -3.264600 9.675558 -3.113267
v -3.259229 9.671206 -3.115780
v -2.633846 9.671207 -3.115780
v -2.628475 9.675560 -3.113267
v -3.264600 9.675558 -3.019459
v -3.259229 9.671206 -3.016947
v -2.633846 9.671207 -3.016947
v -2.628475 9.675560 -3.019459
vn -1.0000 0.0000 0.0000
vn 0.0000 0.0000 1.0000
vn 1.0000 0.0000 0.0000
vn 0.0000 0.0000 -1.0000
vn 0.0000 1.0000 0.0000
vn 0.0000 -1.0000 0.0000
vn 0.0872 0.0000 0.9962
vn 0.2588 0.0000 0.9659
vn 0.4226 0.0000 0.9063
vn 0.5736 0.0000 0.8191
vn 0.7071 0.0000 0.7071
vn 0.0000 -1.0000 0.0001
vn 0.8192 0.0000 0.5736
vn 0.9063 0.0000 0.4226
vn 0.0000 -1.0000 -0.0001
vn 0.9659 0.0000 0.2588
vn 0.9962 0.0000 0.0871
vn 0.0000 1.0000 0.0001
vn 0.9962 0.0000 -0.0871
vn 0.0000 1.0000 -0.0001
vn 0.9659 0.0000 -0.2588
vn 0.9063 0.0000 -0.4226
vn 0.8192 0.0000 -0.5736
vn 0.7071 0.0000 -0.7071
vn 0.5736 0.0000 -0.8191
vn 0.4226 0.0000 -0.9063
vn 0.2588 0.0000 -0.9659
vn 0.0871 0.0000 -0.9962
vn -0.0872 0.0000 -0.9962
vn 0.0001 -1.0000 0.0000
vn -0.2588 0.0000 -0.9659
vn -0.0001 1.0000 0.0000
vn -0.4226 0.0000 -0.9063
vn -0.5736 0.0000 -0.8192
vn -0.7071 0.0000 -0.7071
vn -0.8192 0.0000 -0.5736
vn -0.9063 0.0000 -0.4226
vn -0.9659 0.0000 -0.2588
vn -0.9962 0.0000 -0.0872
vn -0.9962 0.0000 0.0872
vn -0.9659 0.0000 0.2588
vn -0.9063 0.0000 0.4226
vn -0.8192 0.0000 0.5736
vn -0.7071 0.0000 0.7071
vn -0.5735 0.0000 0.8192
vn -0.4226 0.0000 0.9063
vn -0.2588 0.0000 0.9659
vn -0.0871 0.0000 0.9962
vn 0.6296 0.3885 0.6728
vn -0.0000 0.5000 0.8660
vn -0.6296 0.3885 0.6728
vn 0.6297 0.7769 0.0000
vn -0.6296 0.7769 0.0000
vn 0.6296 0.3885 -0.6728
vn -0.0000 0.5000 -0.8660
vn -0.6296 0.3885 -0.6729
vn 0.6296 -0.3885 -0.6728
vn 0.0000 -0.5000 -0.8660
vn -0.6296 -0.3885 -0.6729
vn 0.6295 -0.7770 0.0000
vn -0.6297 -0.7769 0.0000
vn 0.6296 -0.3885 0.6729
vn 0.0000 -0.5000 0.8660
vn -0.6296 -0.3885 0.6728
vn -0.5736 0.0000 0.8191
vn -0.9962 0.0000 0.0871
vn -0.9962 0.0000 -0.0871
vn -0.5736 0.0000 -0.8191
vn -0.0871 0.0000 -0.9962
vn 0.2589 0.0000 -0.9659
vn 0.9962 0.0000 -0.0872
vn 0.9962 0.0000 0.0872
vn 0.5736 0.0000 0.8192
vn 0.0871 0.0000 0.9962
vn 0.6296 0.3884 0.6728
vn 0.6296 0.7769 0.0000
vn -0.6296 0.3885 -0.6728
vn 0.6296 0.3885 -0.6729
vn -0.6295 -0.3885 -0.6729
vn 0.6296 -0.3884 -0.6729
vn -0.6296 -0.7769 0.0000
vn 0.6297 -0.7769 0.0000
vn 0.5735 0.0000 0.8192
vn 0.5736 0.0000 -0.8192
vn 0.0872 0.0000 -0.9962
vn -0.0872 0.0000 0.9962
vn -0.6297 0.7769 0.0000
vn 0.6296 -0.3885 -0.6729
vn 0.6296 -0.7769 0.0000
vn 0.6296 -0.3885 0.6728
vn -0.5736 0.0000 0.8192
vn -0.6296 0.3885 0.6729
vn -0.6296 0.3884 -0.6729
usemtl Mat.012
s off
f 2//1 4//1 1//1
f 5//2 3//2 2//2
f 7//3 6//3 5//3
f 1//4 8//4 7//4
f 3//5 8//5 4//5
f 5//6 1//6 7//6
f 10//1 12//1 9//1
f 13//2 11//2 10//2
f 15//3 14//3 13//3
f 9//4 16//4 15//4
f 11//5 16//5 12//5
f 13//6 9//6 15//6
f 17//4 19//4 20//4
f 21//1 19//1 18//1
f 23//2 22//2 21//2
f 17//3 24//3 23//3
f 19//5 24//5 20//5
f 23//6 18//6 17//6
f 25//6 26//6 27//6
f 26//7 29//7 27//7
f 29//5 28//5 30//5
f 25//6 31//6 26//6
f 31//8 28//8 26//8
f 28//5 32//5 30//5
f 25//6 33//6 31//6
f 33//9 32//9 31//9
f 32//5 34//5 30//5
f 25//6 35//6 33//6
f 35//10 34//10 33//10
f 34//5 36//5 30//5
f 25//6 37//6 35//6
f 37//11 36//11 35//11
f 36//5 38//5 30//5
f 25//12 39//12 37//12
f 39//13 38//13 37//13
f 38//5 40//5 30//5
f 25//6 41//6 39//6
f 41//14 40//14 39//14
f 40//5 42//5 30//5
f 25//15 43//15 41//15
f 43//16 42//16 41//16
f 42//5 44//5 30//5
f 25//6 45//6 43//6
f 45//17 44//17 43//17
f 44//18 46//18 30//18
f 25//6 47//6 45//6
f 47//19 46//19 45//19
f 46//20 48//20 30//20
f 25//12 49//12 47//12
f 49//21 48//21 47//21
f 48//5 50//5 30//5
f 25//6 51//6 49//6
f 51//22 50//22 49//22
f 50//5 52//5 30//5
f 25//15 53//15 51//15
f 53//23 52//23 51//23
f 52//5 54//5 30//5
f 25//6 55//6 53//6
f 55//24 54//24 53//24
f 54//5 56//5 30//5
f 25//6 57//6 55//6
f 57//25 56//25 55//25
f 56//5 58//5 30//5
f 25//6 59//6 57//6
f 59//26 58//26 57//26
f 58//5 60//5 30//5
f 25//6 61//6 59//6
f 61//27 60//27 59//27
f 60//5 62//5 30//5
f 25//6 63//6 61//6
f 63//28 62//28 61//28
f 62//5 64//5 30//5
f 25//6 65//6 63//6
f 65//29 64//29 63//29
f 64//5 66//5 30//5
f 25//30 67//30 65//30
f 65//31 68//31 66//31
f 66//32 68//32 30//32
f 25//6 69//6 67//6
f 69//33 68//33 67//33
f 68//5 70//5 30//5
f 25//6 71//6 69//6
f 71//34 70//34 69//34
f 70//18 72//18 30//18
f 25//12 73//12 71//12
f 73//35 72//35 71//35
f 72//5 74//5 30//5
f 25//6 75//6 73//6
f 75//36 74//36 73//36
f 74//5 76//5 30//5
f 25//6 77//6 75//6
f 77//37 76//37 75//37
f 76//5 78//5 30//5
f 25//6 79//6 77//6
f 79//38 78//38 77//38
f 78//5 80//5 30//5
f 25//6 81//6 79//6
f 81//39 80//39 79//39
f 80//5 82//5 30//5
f 25//6 83//6 81//6
f 83//40 82//40 81//40
f 82//5 84//5 30//5
f 25//6 85//6 83//6
f 85//41 84//41 83//41
f 84//5 86//5 30//5
f 25//6 87//6 85//6
f 87//42 86//42 85//42
f 86//5 88//5 30//5
f 25//6 89//6 87//6
f 89//43 88//43 87//43
f 88//5 90//5 30//5
f 25//15 91//15 89//15
f 91//44 90//44 89//44
f 90//5 92//5 30//5
f 25//6 93//6 91//6
f 93//45 92//45 91//45
f 92//5 94//5 30//5
f 25//6 95//6 93//6
f 95//46 94//46 93//46
f 94//5 96//5 30//5
f 25//30 97//30 95//30
f 97//47 96//47 95//47
f 96//32 98//32 30//32
f 25//6 27//6 97//6
f 27//48 98//48 97//48
f 98//5 29//5 30//5
usemtl Mat.013
f 99//3 100//3 101//3
f 100//49 103//49 101//49
f 103//50 104//50 105//50
f 105//51 106//51 107//51
f 107//1 106//1 108//1
f 99//3 109//3 100//3
f 100//52 110//52 102//52
f 110//5 104//5 102//5
f 111//53 106//53 104//53
f 106//1 112//1 108//1
f 99//3 113//3 109//3
f 109//54 114//54 110//54
f 114//55 111//55 110//55
f 115//56 112//56 111//56
f 112//1 116//1 108//1
f 99//3 117//3 113//3
f 113//57 118//57 114//57
f 118//58 115//58 114//58
f 115//59 120//59 116//59
f 116//1 120//1 108//1
f 99//3 121//3 117//3
f 121//60 118//60 117//60
f 118//6 123//6 119//6
f 119//61 124//61 120//61
f 120//1 124//1 108//1
f 99//3 101//3 121//3
f 101//62 122//62 121//62
f 103//63 123//63 122//63
f 105//64 124//64 123//64
f 124//1 107//1 108//1
usemtl Mat.012
f 128//3 126//3 125//3
f 127//2 129//2 126//2
f 130//1 131//1 129//1
f 132//4 125//4 131//4
f 132//5 127//5 128//5
f 125//6 129//6 131//6
f 136//3 134//3 133//3
f 135//2 137//2 134//2
f 138//1 139//1 137//1
f 140//4 133//4 139//4
f 140//5 135//5 136//5
f 133//6 137//6 139//6
f 144//4 142//4 141//4
f 143//3 145//3 142//3
f 145//2 148//2 147//2
f 148//1 141//1 147//1
f 148//5 143//5 144//5
f 141//6 145//6 147//6
f 149//6 151//6 150//6
f 153//48 150//48 151//48
f 153//5 154//5 152//5
f 149//6 150//6 155//6
f 152//47 155//47 150//47
f 152//5 154//5 156//5
f 149//6 155//6 157//6
f 156//46 157//46 155//46
f 156//5 154//5 158//5
f 149//6 157//6 159//6
f 158//65 159//65 157//65
f 158//5 154//5 160//5
f 149//15 159//15 161//15
f 160//44 161//44 159//44
f 160//18 154//18 162//18
f 149//6 161//6 163//6
f 162//43 163//43 161//43
f 162//20 154//20 164//20
f 149//6 163//6 165//6
f 164//42 165//42 163//42
f 164//18 154//18 166//18
f 149//6 165//6 167//6
f 166//41 167//41 165//41
f 166//5 154//5 168//5
f 149//6 167//6 169//6
f 168//66 169//66 167//66
f 168//5 154//5 170//5
f 149//6 169//6 171//6
f 170//67 171//67 169//67
f 170//5 154//5 172//5
f 149//6 171//6 173//6
f 172//38 173//38 171//38
f 172//5 154//5 174//5
f 149//6 173//6 175//6
f 174//37 175//37 173//37
f 174//20 154//20 176//20
f 149//6 175//6 177//6
f 176//36 177//36 175//36
f 176//18 154//18 178//18
f 149//12 177//12 179//12
f 178//35 179//35 177//35
f 178//20 154//20 180//20
f 149//6 179//6 181//6
f 180//68 181//68 179//68
f 180//5 154//5 182//5
f 149//6 181//6 183//6
f 182//33 183//33 181//33
f 182//5 154//5 184//5
f 149//6 183//6 185//6
f 184//31 185//31 183//31
f 184//5 154//5 186//5
f 149//6 185//6 187//6
f 186//69 187//69 185//69
f 186//5 154//5 188//5
f 149//6 187//6 189//6
f 188//28 189//28 187//28
f 188//5 154//5 190//5
f 149//30 189//30 191//30
f 190//70 191//70 189//70
f 190//32 154//32 192//32
f 149//6 191//6 193//6
f 192//26 193//26 191//26
f 192//5 154//5 194//5
f 149//6 193//6 195//6
f 194//25 195//25 193//25
f 194//18 154//18 196//18
f 149//12 195//12 197//12
f 196//24 197//24 195//24
f 196//5 154//5 198//5
f 149//6 197//6 199//6
f 198//23 199//23 197//23
f 198//5 154//5 200//5
f 149//6 199//6 201//6
f 200//22 201//22 199//22
f 200//5 154//5 202//5
f 149//6 201//6 203//6
f 202//21 203//21 201//21
f 202//5 154//5 204//5
f 149//6 203//6 205//6
f 204//71 205//71 203//71
f 204//5 154//5 206//5
f 149//6 205//6 207//6
f 206//72 207//72 205//72
f 206//5 154//5 208//5
f 149//6 207//6 209//6
f 208//16 209//16 207//16
f 208//5 154//5 210//5
f 149//6 209//6 211//6
f 210//14 211//14 209//14
f 210//5 154//5 212//5
f 149//6 211//6 213//6
f 212//13 213//13 211//13
f 212//5 154//5 214//5
f 149//15 213//15 215//15
f 214//11 215//11 213//11
f 214//5 154//5 216//5
f 149//6 215//6 217//6
f 216//73 217//73 215//73
f 216//5 154//5 218//5
f 149//6 217//6 219//6
f 218//9 219//9 217//9
f 218//5 154//5 220//5
f 149//30 219//30 221//30
f 219//8 222//8 221//8
f 220//32 154//32 222//32
f 149//6 221//6 151//6
f 222//74 151//74 221//74
f 222//5 154//5 153//5
usemtl Mat.013
f 223//1 225//1 224//1
f 225//51 226//51 224//51
f 229//50 226//50 227//50
f 229//75 230//75 228//75
f 231//3 232//3 230//3
f 223//1 224//1 233//1
f 224//53 234//53 233//53
f 226//5 235//5 234//5
f 230//76 235//76 228//76
f 230//3 232//3 236//3
f 223//1 233//1 237//1
f 233//77 238//77 237//77
f 234//55 239//55 238//55
f 236//78 239//78 235//78
f 236//3 232//3 240//3
f 223//1 237//1 241//1
f 237//79 242//79 241//79
f 238//58 243//58 242//58
f 239//80 244//80 243//80
f 240//3 232//3 244//3
f 223//1 241//1 245//1
f 242//81 245//81 241//81
f 243//6 246//6 242//6
f 243//82 248//82 247//82
f 244//3 232//3 248//3
f 223//1 245//1 225//1
f 246//64 225//64 245//64
f 247//63 227//63 246//63
f 248//62 229//62 247//62
f 248//3 232//3 231//3
usemtl Mat.012
f 2//1 3//1 4//1
f 5//2 6//2 3//2
f 7//3 8//3 6//3
f 1//4 4//4 8//4
f 3//5 6//5 8//5
f 5//6 2//6 1//6
f 10//1 11//1 12//1
f 13//2 14//2 11//2
f 15//3 16//3 14//3
f 9//4 12//4 16//4
f 11//5 14//5 16//5
f 13//6 10//6 9//6
f 17//4 18//4 19//4
f 21//1 22//1 19//1
f 23//2 24//2 22//2
f 17//3 20//3 24//3
f 19//5 22//5 24//5
f 23//6 21//6 18//6
f 26//74 28//74 29//74
f 31//8 32//8 28//8
f 33//9 34//9 32//9
f 35//83 36//83 34//83
f 37//11 38//11 36//11
f 39//13 40//13 38//13
f 41//14 42//14 40//14
f 43//16 44//16 42//16
f 45//17 46//17 44//17
f 47//19 48//19 46//19
f 49//21 50//21 48//21
f 51//22 52//22 50//22
f 53//23 54//23 52//23
f 55//24 56//24 54//24
f 57//84 58//84 56//84
f 59//26 60//26 58//26
f 61//27 62//27 60//27
f 63//85 64//85 62//85
f 65//69 66//69 64//69
f 65//31 67//31 68//31
f 69//33 70//33 68//33
f 71//68 72//68 70//68
f 73//35 74//35 72//35
f 75//36 76//36 74//36
f 77//37 78//37 76//37
f 79//38 80//38 78//38
f 81//39 82//39 80//39
f 83//40 84//40 82//40
f 85//41 86//41 84//41
f 87//42 88//42 86//42
f 89//43 90//43 88//43
f 91//44 92//44 90//44
f 93//65 94//65 92//65
f 95//46 96//46 94//46
f 97//47 98//47 96//47
f 27//86 29//86 98//86
usemtl Mat.013
f 100//75 102//75 103//75
f 103//50 102//50 104//50
f 105//51 104//51 106//51
f 100//76 109//76 110//76
f 110//5 111//5 104//5
f 111//87 112//87 106//87
f 109//54 113//54 114//54
f 114//55 115//55 111//55
f 115//56 116//56 112//56
f 113//88 117//88 118//88
f 118//58 119//58 115//58
f 115//59 119//59 120//59
f 121//89 122//89 118//89
f 118//6 122//6 123//6
f 119//81 123//81 124//81
f 101//90 103//90 122//90
f 103//63 105//63 123//63
f 105//64 107//64 124//64
usemtl Mat.012
f 128//3 127//3 126//3
f 127//2 130//2 129//2
f 130//1 132//1 131//1
f 132//4 128//4 125//4
f 132//5 130//5 127//5
f 125//6 126//6 129//6
f 136//3 135//3 134//3
f 135//2 138//2 137//2
f 138//1 140//1 139//1
f 140//4 136//4 133//4
f 140//5 138//5 135//5
f 133//6 134//6 137//6
f 144//4 143//4 142//4
f 143//3 146//3 145//3
f 145//2 146//2 148//2
f 148//1 144//1 141//1
f 148//5 146//5 143//5
f 141//6 142//6 145//6
f 153//48 152//48 150//48
f 152//47 156//47 155//47
f 156//46 158//46 157//46
f 158//91 160//91 159//91
f 160//44 162//44 161//44
f 162//43 164//43 163//43
f 164//42 166//42 165//42
f 166//41 168//41 167//41
f 168//66 170//66 169//66
f 170//67 172//67 171//67
f 172//38 174//38 173//38
f 174//37 176//37 175//37
f 176//36 178//36 177//36
f 178//35 180//35 179//35
f 180//68 182//68 181//68
f 182//33 184//33 183//33
f 184//31 186//31 185//31
f 186//69 188//69 187//69
f 188//28 190//28 189//28
f 190//27 192//27 191//27
f 192//26 194//26 193//26
f 194//25 196//25 195//25
f 196//24 198//24 197//24
f 198//23 200//23 199//23
f 200//22 202//22 201//22
f 202//21 204//21 203//21
f 204//71 206//71 205//71
f 206//72 208//72 207//72
f 208//16 210//16 209//16
f 210//14 212//14 211//14
f 212//13 214//13 213//13
f 214//11 216//11 215//11
f 216//10 218//10 217//10
f 218//9 220//9 219//9
f 219//8 220//8 222//8
f 222//74 153//74 151//74
usemtl Mat.013
f 225//92 227//92 226//92
f 229//50 228//50 226//50
f 229//49 231//49 230//49
f 224//53 226//53 234//53
f 226//5 228//5 235//5
f 230//76 236//76 235//76
f 233//93 234//93 238//93
f 234//55 235//55 239//55
f 236//78 240//78 239//78
f 237//79 238//79 242//79
f 238//58 239//58 243//58
f 239//88 240//88 244//88
f 242//81 246//81 245//81
f 243//6 247//6 246//6
f 243//89 244//89 248//89
f 246//64 227//64 225//64
f 247//63 229//63 227//63
f 248//90 231//90 229//90
