# Blender v2.78 (sub 0) OBJ File: 'gabelstapler.blend'
# www.blender.org
mtllib stapler_gabel_stift_r.mtl
o Gabel_r_Cube.13_1.001
v 2.207871 0.162294 -10.249348
v 2.207871 0.372617 -10.249348
v 2.207870 0.372617 -6.557550
v 2.207870 0.224104 -6.409037
v 2.207870 0.162294 -6.409037
v 2.207870 0.310808 -6.138389
v 2.207870 0.372617 -6.138389
v 1.306390 0.372617 -6.138389
v 1.306390 0.310808 -6.138389
v 1.306390 0.162294 -6.409037
v 1.306390 0.224104 -6.409037
v 1.306390 0.372617 -6.557550
v 1.306390 0.372617 -10.249348
v 1.306390 0.162294 -10.249348
v 1.604990 0.162294 -11.368889
v 1.604990 0.271821 -11.368597
v 1.909270 0.271821 -11.368597
v 1.909270 0.162294 -11.368889
v 1.390187 0.162294 -11.172698
v 1.459533 0.162294 -11.312459
v 2.054728 0.162294 -11.312459
v 2.124073 0.162294 -11.172698
v 2.124073 0.286937 -11.172989
v 2.054728 0.276169 -11.312335
v 1.459533 0.276168 -11.312335
v 1.390187 0.286937 -11.172989
v 2.207870 0.162294 -6.286902
v 1.306390 0.162294 -6.286902
v 1.306390 0.205793 -6.181887
v 1.306390 0.372617 -6.260523
v 1.306389 4.221144 -6.409037
v 1.306389 4.221144 -6.138389
v 2.207870 4.221145 -6.138389
v 2.207870 4.221145 -6.409037
v 2.207870 0.372617 -6.260523
v 2.207870 0.205793 -6.181887
v 1.306390 0.521131 -6.409037
v 2.207870 0.521131 -6.409037
v 1.306390 0.416116 -6.452535
v 2.207870 0.416116 -6.452535
vn 1.0000 -0.0000 0.0000
vn 0.0000 0.0000 1.0000
vn -1.0000 -0.0000 -0.0000
vn 0.0000 0.0027 -1.0000
vn -0.0000 1.0000 0.0000
vn 0.0000 -1.0000 0.0000
vn 0.9959 -0.0001 -0.0904
vn -0.0000 0.9959 -0.0903
vn -0.9959 -0.0001 -0.0904
vn 0.0000 0.0000 -1.0000
vn 0.0000 -0.9239 0.3827
vn -0.0000 0.9239 -0.3827
vn 0.0000 -0.3827 0.9239
vn 0.0000 0.3827 -0.9239
vn -0.3612 0.0017 -0.9325
vn 0.8955 -0.0003 -0.4450
vn -0.8955 -0.0003 -0.4450
vn 0.3612 0.0017 -0.9325
usemtl default.001
s off
f 1//1 2//1 3//1 4//1 5//1
f 6//2 7//2 8//2 9//2
f 10//3 11//3 12//3 13//3 14//3
f 15//4 16//4 17//4 18//4
f 2//5 13//5 12//5 3//5
f 14//6 1//6 5//6 10//6
f 14//6 19//6 20//6 15//6 18//6 21//6 22//6 1//6
f 1//7 22//7 23//7 2//7
f 2//8 23//8 24//8 17//8 16//8 25//8 26//8 13//8
f 13//9 26//9 19//9 14//9
f 5//6 27//6 28//6 10//6
f 10//3 28//3 29//3 9//3 8//3 30//3 11//3
f 31//5 32//5 33//5 34//5
f 4//1 35//1 7//1 6//1 36//1 27//1 5//1
f 37//10 31//10 34//10 38//10
f 35//1 38//1 34//1 33//1 7//1
f 7//2 33//2 32//2 8//2
f 8//3 32//3 31//3 37//3 30//3
f 27//11 36//11 29//11 28//11
f 12//12 39//12 40//12 3//12
f 37//3 39//3 12//3 11//3 30//3
f 38//1 35//1 4//1 3//1 40//1
f 36//13 6//13 9//13 29//13
f 39//14 37//14 38//14 40//14
f 15//15 20//15 25//15 16//15
f 22//16 21//16 24//16 23//16
f 20//17 19//17 26//17 25//17
f 21//18 18//18 17//18 24//18
