# Blender v2.78 (sub 0) OBJ File: 'gabelstapler_allesgenullt.blend'
# www.blender.org
mtllib stapler_karosse_front.mtl
o karosse_front_Plane.001
v 2.977065 12.554293 -5.310755
v 2.977065 13.072647 -5.310755
v 2.977065 13.072647 -3.846249
v 2.977065 12.554293 -3.846249
v -2.963469 13.072645 -3.846250
v -2.963469 12.554291 -3.846250
v -2.963469 13.072645 -5.310755
v -2.963469 12.554291 -5.310755
v 2.208458 0.852570 -5.309955
v 2.208456 12.684498 -5.309955
v 2.208456 12.684498 -4.051000
v 2.208458 0.852570 -4.051000
v 1.285071 12.684498 -4.051000
v 1.285073 0.852570 -4.051000
v 1.285071 12.684498 -5.309955
v 1.285073 0.852570 -5.309955
v -2.194859 0.852569 -5.309955
v -2.194859 0.852569 -4.051000
v -2.194860 12.684498 -4.051000
v -2.194860 12.684498 -5.309955
v -1.271474 0.852569 -4.051000
v -1.271476 12.684498 -4.051000
v -1.271474 0.852569 -5.309955
v -1.271476 12.684498 -5.309955
v 2.198696 11.749657 -5.311571
v 2.198696 12.051094 -5.311571
v 2.198696 12.051094 -3.680728
v 2.198696 11.749657 -3.680728
v 0.947764 12.051094 -3.680728
v 0.947764 11.749657 -3.680728
v 0.947764 12.051094 -5.311571
v 0.947764 11.749657 -5.311571
v -2.185100 11.749657 -5.311571
v -2.185100 11.749657 -3.680728
v -2.185100 12.051094 -3.680728
v -2.185100 12.051094 -5.311571
v -0.934168 11.749657 -3.680728
v -0.934168 12.051094 -3.680728
v -0.934168 11.749657 -5.311571
v -0.934168 12.051094 -5.311571
v -2.977065 12.554293 -5.310755
v -2.977065 13.072647 -5.310755
v -2.977065 13.072647 -3.846249
v -2.977065 12.554293 -3.846249
v 2.963469 13.072645 -3.846250
v 2.963469 12.554291 -3.846250
v 2.963469 13.072645 -5.310755
v 2.963469 12.554291 -5.310755
v -2.208458 0.852570 -5.309955
v -2.208456 12.684498 -5.309955
v -2.208456 12.684498 -4.051000
v -2.208458 0.852570 -4.051000
v -1.285071 12.684498 -4.051000
v -1.285073 0.852570 -4.051000
v -1.285071 12.684498 -5.309955
v -1.285073 0.852570 -5.309955
v 2.194859 0.852569 -5.309955
v 2.194859 0.852569 -4.051000
v 2.194860 12.684498 -4.051000
v 2.194860 12.684498 -5.309955
v 1.271474 0.852569 -4.051000
v 1.271476 12.684498 -4.051000
v 1.271474 0.852569 -5.309955
v 1.271476 12.684498 -5.309955
v -2.198696 11.749657 -5.311571
v -2.198696 12.051094 -5.311571
v -2.198696 12.051094 -3.680728
v -2.198696 11.749657 -3.680728
v -0.947764 12.051094 -3.680728
v -0.947764 11.749657 -3.680728
v -0.947764 12.051094 -5.311571
v -0.947764 11.749657 -5.311571
v 2.185100 11.749657 -5.311571
v 2.185100 11.749657 -3.680728
v 2.185100 12.051094 -3.680728
v 2.185100 12.051094 -5.311571
v 0.934168 11.749657 -3.680728
v 0.934168 12.051094 -3.680728
v 0.934168 11.749657 -5.311571
v 0.934168 12.051094 -5.311571
vn 1.0000 0.0000 0.0000
vn -0.0000 0.0000 1.0000
vn -1.0000 0.0000 -0.0000
vn -0.0000 0.0000 -1.0000
vn -0.0000 1.0000 0.0000
vn 0.0000 -1.0000 -0.0000
usemtl default.001
s off
f 2//1 4//1 1//1
f 3//2 6//2 4//2
f 5//3 8//3 6//3
f 7//4 1//4 8//4
f 7//5 3//5 2//5
f 1//6 6//6 8//6
f 10//1 12//1 9//1
f 11//2 14//2 12//2
f 13//3 16//3 14//3
f 9//6 14//6 16//6
f 18//3 20//3 17//3
f 18//2 22//2 19//2
f 23//1 22//1 21//1
f 21//6 17//6 23//6
f 26//1 28//1 25//1
f 27//2 30//2 28//2
f 29//3 32//3 30//3
f 31//4 25//4 32//4
f 31//5 27//5 26//5
f 34//3 36//3 33//3
f 34//2 38//2 35//2
f 39//1 38//1 37//1
f 33//4 40//4 39//4
f 35//5 40//5 36//5
f 24//4 17//4 20//4
f 15//4 9//4 16//4
f 44//3 42//3 41//3
f 46//2 43//2 44//2
f 48//1 45//1 46//1
f 48//4 42//4 47//4
f 43//5 47//5 42//5
f 46//6 41//6 48//6
f 52//3 50//3 49//3
f 54//2 51//2 52//2
f 56//1 53//1 54//1
f 54//6 49//6 56//6
f 60//1 58//1 57//1
f 58//2 62//2 61//2
f 62//3 63//3 61//3
f 57//6 61//6 63//6
f 68//3 66//3 65//3
f 70//2 67//2 68//2
f 72//1 69//1 70//1
f 65//4 71//4 72//4
f 67//5 71//5 66//5
f 76//1 74//1 73//1
f 74//2 78//2 77//2
f 78//3 79//3 77//3
f 80//4 73//4 79//4
f 80//5 75//5 76//5
f 64//4 57//4 63//4
f 49//4 55//4 56//4
f 2//1 3//1 4//1
f 3//2 5//2 6//2
f 5//3 7//3 8//3
f 7//4 2//4 1//4
f 7//5 5//5 3//5
f 1//6 4//6 6//6
f 10//1 11//1 12//1
f 11//2 13//2 14//2
f 13//3 15//3 16//3
f 9//6 12//6 14//6
f 18//3 19//3 20//3
f 18//2 21//2 22//2
f 23//1 24//1 22//1
f 21//6 18//6 17//6
f 26//1 27//1 28//1
f 27//2 29//2 30//2
f 29//3 31//3 32//3
f 31//4 26//4 25//4
f 31//5 29//5 27//5
f 34//3 35//3 36//3
f 34//2 37//2 38//2
f 39//1 40//1 38//1
f 33//4 36//4 40//4
f 35//5 38//5 40//5
f 24//4 23//4 17//4
f 15//4 10//4 9//4
f 44//3 43//3 42//3
f 46//2 45//2 43//2
f 48//1 47//1 45//1
f 48//4 41//4 42//4
f 43//5 45//5 47//5
f 46//6 44//6 41//6
f 52//3 51//3 50//3
f 54//2 53//2 51//2
f 56//1 55//1 53//1
f 54//6 52//6 49//6
f 60//1 59//1 58//1
f 58//2 59//2 62//2
f 62//3 64//3 63//3
f 57//6 58//6 61//6
f 68//3 67//3 66//3
f 70//2 69//2 67//2
f 72//1 71//1 69//1
f 65//4 66//4 71//4
f 67//5 69//5 71//5
f 76//1 75//1 74//1
f 74//2 75//2 78//2
f 78//3 80//3 79//3
f 80//4 76//4 73//4
f 80//5 78//5 75//5
f 64//4 60//4 57//4
f 49//4 50//4 55//4
