# Blender v2.78 (sub 0) OBJ File: 'gabelstapler_allesgenullt.blend'
# www.blender.org
mtllib stapler_karosse.mtl
o karosse_Plane.002
v -1.152870 0.000000 3.309024
v -1.152870 0.000000 0.470581
v -1.152870 0.000000 3.309024
v -3.769425 0.000000 3.309024
v -1.152870 0.000000 0.470581
v -1.152870 2.253609 3.309024
v -1.152870 2.253609 0.470581
v -1.152870 2.253609 3.309024
v -3.769425 2.253609 3.309024
v -1.152870 2.253609 0.470581
v -3.769425 2.253609 0.470581
v -3.769425 2.445544 3.309024
v -0.532373 3.206669 3.309024
v -1.094965 2.445544 3.309024
v -3.769425 3.206669 3.309024
v -3.769425 2.977056 3.309024
v -3.769425 2.445544 0.470581
v -0.782058 2.977056 3.309024
v -1.094965 2.445544 0.470581
v -3.769425 2.977056 0.470581
v -0.782058 2.977056 0.470581
v -0.985334 2.667007 0.470581
v -3.769425 2.667007 0.470581
v -0.985334 2.667007 3.309024
v -3.769425 2.667007 3.309024
v -3.769425 3.206669 0.470581
v -0.532373 3.206669 0.470581
v -0.247373 3.359744 3.309024
v -3.769425 3.359744 3.309024
v -3.769425 3.359744 0.470581
v -0.247373 3.359744 0.470581
v -3.769425 3.420974 3.309024
v -3.769425 3.420974 0.470581
v -3.769425 3.661742 3.259032
v -3.769425 0.000000 0.470581
v -3.769425 3.661742 0.470581
v -3.769425 0.000000 0.129429
v -3.769425 3.415017 0.129429
v -3.769425 0.000000 -0.158137
v -3.769425 3.144708 -0.158137
v -3.769425 0.000000 -0.481649
v -3.769425 2.784296 -0.481649
v -3.769425 0.000000 -0.877053
v -3.769425 2.333780 -0.877053
v -3.769425 0.000000 -1.172531
v -3.769425 2.237976 -1.172531
v -3.769425 0.000000 -1.560480
v -3.769425 2.237976 -1.560480
v -3.769425 0.000000 -2.863435
v -3.769425 2.237976 -2.863435
v -3.769425 2.131927 -4.737460
v -3.769425 1.954174 -4.205116
v -3.769425 1.720154 -3.833783
v -3.769425 1.396515 -3.584027
v -3.769425 1.072876 -3.449933
v -3.769425 0.684510 -3.410408
v -3.769425 0.050050 -3.410408
v 0.040159 0.050050 -3.410408
v -3.769425 2.113678 -5.038428
v -2.196547 2.113678 -5.038428
v -3.769425 2.011423 -5.444856
v -2.236706 2.011423 -5.444856
v -3.769425 1.798451 -5.825262
v -2.236706 1.798451 -5.825262
v -3.769425 1.923646 -4.962873
v -2.196547 1.923646 -4.962873
v -3.769425 1.821391 -5.369301
v -2.236706 1.821391 -5.369301
v -3.769425 1.608419 -5.749707
v -2.236706 1.608419 -5.749707
v 1.152870 0.000000 3.309024
v 1.152870 0.000000 0.470581
v 1.152870 0.000000 3.309024
v 3.769425 0.000000 3.309024
v 1.152870 0.000000 0.470581
v 1.152870 2.253609 3.309024
v 1.152870 2.253609 0.470581
v 1.152870 2.253609 3.309024
v 3.769425 2.253609 3.309024
v 1.152870 2.253609 0.470581
v 3.769425 2.253609 0.470581
v 3.769425 2.445544 3.309024
v 0.532373 3.206669 3.309024
v 1.094965 2.445544 3.309024
v 3.769425 3.206669 3.309024
v 3.769425 2.977056 3.309024
v 3.769425 2.445544 0.470581
v 0.782058 2.977056 3.309024
v 1.094965 2.445544 0.470581
v 3.769425 2.977056 0.470581
v 0.782058 2.977056 0.470581
v 0.985334 2.667007 0.470581
v 3.769425 2.667007 0.470581
v 0.985334 2.667007 3.309024
v 3.769425 2.667007 3.309024
v 3.769425 3.206669 0.470581
v 0.532373 3.206669 0.470581
v 0.247373 3.359744 3.309024
v 3.769425 3.359744 3.309024
v 3.769425 3.359744 0.470581
v 0.247373 3.359744 0.470581
v 0.000000 3.420974 3.309024
v 3.769425 3.420974 3.309024
v 3.769425 3.420974 0.470581
v 0.000000 3.420974 0.470581
v 0.000000 3.661742 3.259032
v 3.769425 3.661742 3.259032
v 0.000000 3.661742 0.470581
v 0.000000 -0.000452 0.470581
v 3.769425 0.000000 0.470581
v 3.769425 3.661742 0.470581
v 0.000000 3.661742 0.470581
v 0.000000 -0.000452 0.470581
v 3.769425 0.000000 0.129429
v 3.769425 3.415017 0.129429
v 0.000000 3.415017 0.129429
v 0.000000 -0.000452 0.129429
v 3.769425 0.000000 -0.158137
v 3.769425 3.144708 -0.158137
v 0.000000 3.144708 -0.158137
v 0.000000 -0.000452 -0.158137
v 3.769425 0.000000 -0.481649
v 3.769425 2.784296 -0.481649
v 0.000000 2.784296 -0.481649
v 0.000000 -0.000452 -0.481649
v 3.769425 0.000000 -0.877053
v 3.769425 2.333780 -0.877053
v 0.000000 2.333780 -0.877053
v 0.000000 -0.000452 -0.877053
v 3.769425 0.000000 -1.172531
v 3.769425 2.237976 -1.172531
v 0.000000 2.237976 -1.172531
v 0.000000 -0.000452 -1.172531
v 3.769425 0.000000 -1.560480
v 3.769425 2.237976 -1.560480
v 0.000000 2.237976 -1.560480
v 0.000000 -0.000452 -1.560480
v 3.769425 0.000000 -2.863435
v 3.769425 2.237976 -2.863435
v 0.000000 2.237976 -2.863435
v 0.000000 -0.000452 -2.863435
v 3.769425 2.131927 -4.737460
v 0.000000 2.131927 -4.737460
v 3.769425 1.954174 -4.205116
v 0.000000 1.954174 -4.205116
v 3.769425 1.720154 -3.833783
v 0.000000 1.720154 -3.833783
v 3.769425 1.396515 -3.584027
v 0.000000 1.396515 -3.584027
v 3.769425 1.072876 -3.449933
v 0.000000 1.072876 -3.449933
v 3.769425 0.684510 -3.410408
v 0.000000 0.684510 -3.410408
v 3.769425 0.050050 -3.410408
v -0.040159 0.050050 -3.410408
v 3.769425 2.113678 -5.038428
v 2.196547 2.113678 -5.038428
v 3.769425 2.011423 -5.444856
v 2.236706 2.011423 -5.444856
v 3.769425 1.798451 -5.825262
v 2.236706 1.798451 -5.825262
v 3.769425 1.923646 -4.962873
v 2.196547 1.923646 -4.962873
v 3.769425 1.821391 -5.369301
v 2.236706 1.821391 -5.369301
v 3.769425 1.608419 -5.749707
v 2.236706 1.608419 -5.749707
vn 0.0000 0.0000 -1.0000
vn 0.8363 -0.5483 0.0000
vn 1.0000 0.0000 0.0000
vn -1.0000 0.0000 0.0000
vn 0.0000 0.0000 1.0000
vn 0.8962 -0.4436 0.0000
vn 0.9574 -0.2888 0.0000
vn 0.6769 -0.7361 0.0000
vn 0.4732 -0.8810 0.0000
vn 0.2403 -0.9707 0.0000
vn 0.0000 0.2033 0.9791
vn -0.0001 -1.0000 0.0000
vn 0.0000 0.8103 -0.5860
vn 0.0000 0.7286 -0.6849
vn 0.0000 0.6680 -0.7442
vn 0.0000 0.6596 -0.7516
vn 0.0000 0.9512 -0.3084
vn 0.0000 1.0000 0.0000
vn 0.0000 0.9984 -0.0565
vn 0.0000 -0.9485 -0.3167
vn 0.0000 -0.8460 -0.5332
vn 0.0000 -0.6109 -0.7917
vn 0.0000 -0.3828 -0.9238
vn 0.0000 -0.1012 -0.9949
vn 0.0000 -0.9958 -0.0919
vn 0.0000 0.9982 -0.0605
vn 0.0000 -0.3695 -0.9292
vn 0.0000 -0.9698 0.2440
vn 0.0000 -0.8726 0.4885
vn 0.9954 -0.0355 -0.0894
vn 0.0000 0.3695 0.9292
vn 0.0000 0.8726 -0.4885
vn -0.8363 -0.5483 0.0000
vn -0.8962 -0.4436 0.0000
vn -0.9574 -0.2888 0.0000
vn -0.6769 -0.7361 0.0000
vn -0.4732 -0.8810 0.0000
vn -0.2403 -0.9707 0.0000
vn 0.0001 -1.0000 0.0000
vn 0.0001 -0.9958 -0.0911
vn -0.9954 -0.0355 -0.0894
vn -0.0001 -0.9958 -0.0911
vn 0.0000 0.9698 -0.2440
usemtl default.001
s off
f 10//1 17//1 19//1
f 22//2 18//2 24//2
f 5//3 8//3 3//3
f 6//4 2//4 1//4
f 3//5 9//5 4//5
f 11//1 5//1 35//1
f 22//1 20//1 21//1
f 14//5 25//5 12//5
f 12//4 23//4 17//4
f 19//6 24//6 14//6
f 25//4 20//4 23//4
f 16//4 26//4 20//4
f 8//5 12//5 9//5
f 19//1 23//1 22//1
f 24//5 16//5 25//5
f 10//7 14//7 8//7
f 9//4 17//4 11//4
f 18//5 15//5 16//5
f 21//1 26//1 27//1
f 21//8 13//8 18//8
f 27//9 28//9 13//9
f 13//5 29//5 15//5
f 27//1 30//1 31//1
f 15//4 30//4 26//4
f 28//5 32//5 29//5
f 31//1 33//1 105//1
f 31//10 102//10 28//10
f 29//4 33//4 30//4
f 102//11 34//11 32//11
f 105//5 22//5 10//5
f 35//4 9//4 11//4
f 33//4 34//4 36//4
f 33//1 112//1 105//1
f 37//12 113//12 35//12
f 38//4 35//4 36//4
f 116//13 36//13 112//13
f 39//12 117//12 37//12
f 40//4 37//4 38//4
f 120//14 38//14 116//14
f 41//12 121//12 39//12
f 42//4 39//4 40//4
f 124//15 40//15 120//15
f 43//12 125//12 41//12
f 44//4 41//4 42//4
f 128//16 42//16 124//16
f 45//12 129//12 43//12
f 46//4 43//4 44//4
f 132//17 44//17 128//17
f 47//12 133//12 45//12
f 48//4 45//4 46//4
f 136//18 46//18 132//18
f 49//12 137//12 47//12
f 50//4 47//4 48//4
f 140//18 48//18 136//18
f 143//19 50//19 140//19
f 145//20 51//20 143//20
f 147//21 52//21 145//21
f 149//22 53//22 147//22
f 151//23 54//23 149//23
f 153//24 55//24 151//24
f 153//1 57//1 56//1
f 141//25 57//25 58//25
f 50//4 54//4 55//4
f 51//26 60//26 59//26
f 70//27 63//27 64//27
f 63//4 67//4 61//4
f 112//18 34//18 106//18
f 65//28 68//28 66//28
f 69//29 68//29 67//29
f 60//30 68//30 62//30
f 65//31 60//31 59//31
f 68//3 64//3 62//3
f 67//4 59//4 61//4
f 65//4 51//4 59//4
f 62//32 63//32 61//32
f 80//1 87//1 81//1
f 88//33 92//33 94//33
f 78//4 75//4 73//4
f 72//3 76//3 71//3
f 79//5 73//5 74//5
f 75//1 81//1 110//1
f 92//1 90//1 93//1
f 95//5 84//5 82//5
f 93//3 82//3 87//3
f 94//34 89//34 84//34
f 90//3 95//3 93//3
f 96//3 86//3 90//3
f 82//5 78//5 79//5
f 89//1 93//1 87//1
f 86//5 94//5 95//5
f 84//35 80//35 78//35
f 87//3 79//3 81//3
f 85//5 88//5 86//5
f 91//1 96//1 90//1
f 83//36 91//36 88//36
f 98//37 97//37 83//37
f 99//5 83//5 85//5
f 97//1 100//1 96//1
f 100//3 85//3 96//3
f 103//5 98//5 99//5
f 101//1 104//1 100//1
f 102//38 101//38 98//38
f 104//3 99//3 100//3
f 106//4 105//4 102//4
f 107//11 102//11 103//11
f 92//5 91//5 105//5
f 79//3 110//3 81//3
f 104//3 107//3 103//3
f 112//1 104//1 105//1
f 113//39 114//39 110//39
f 110//3 115//3 111//3
f 111//13 116//13 112//13
f 117//39 118//39 114//39
f 114//3 119//3 115//3
f 115//14 120//14 116//14
f 121//39 122//39 118//39
f 118//3 123//3 119//3
f 119//15 124//15 120//15
f 125//39 126//39 122//39
f 122//3 127//3 123//3
f 123//16 128//16 124//16
f 129//39 130//39 126//39
f 126//3 131//3 127//3
f 127//17 132//17 128//17
f 133//39 134//39 130//39
f 130//3 135//3 131//3
f 131//18 136//18 132//18
f 137//39 138//39 134//39
f 134//3 139//3 135//3
f 135//18 140//18 136//18
f 139//19 143//19 140//19
f 142//20 145//20 143//20
f 144//21 147//21 145//21
f 146//22 149//22 147//22
f 148//23 151//23 149//23
f 150//24 153//24 151//24
f 153//1 154//1 155//1
f 141//40 154//40 138//40
f 150//3 148//3 139//3
f 142//26 157//26 143//26
f 160//27 167//27 161//27
f 160//3 164//3 166//3
f 107//18 112//18 106//18
f 162//28 165//28 164//28
f 165//29 166//29 164//29
f 157//41 165//41 163//41
f 157//31 162//31 156//31
f 161//4 165//4 159//4
f 156//3 164//3 158//3
f 142//3 162//3 156//3
f 158//32 161//32 159//32
f 10//1 11//1 17//1
f 22//2 21//2 18//2
f 5//3 10//3 8//3
f 6//4 7//4 2//4
f 3//5 8//5 9//5
f 11//1 10//1 5//1
f 22//1 23//1 20//1
f 14//5 24//5 25//5
f 12//4 25//4 23//4
f 19//6 22//6 24//6
f 25//4 16//4 20//4
f 16//4 15//4 26//4
f 8//5 14//5 12//5
f 19//1 17//1 23//1
f 24//5 18//5 16//5
f 10//7 19//7 14//7
f 9//4 12//4 17//4
f 18//5 13//5 15//5
f 21//1 20//1 26//1
f 21//8 27//8 13//8
f 27//9 31//9 28//9
f 13//5 28//5 29//5
f 27//1 26//1 30//1
f 15//4 29//4 30//4
f 28//5 102//5 32//5
f 31//1 30//1 33//1
f 31//10 105//10 102//10
f 29//4 32//4 33//4
f 102//11 106//11 34//11
f 5//5 109//5 10//5
f 105//5 31//5 27//5
f 27//5 21//5 105//5
f 22//5 19//5 10//5
f 10//5 109//5 105//5
f 105//5 21//5 22//5
f 35//4 4//4 9//4
f 33//4 32//4 34//4
f 33//1 36//1 112//1
f 37//12 117//12 113//12
f 38//4 37//4 35//4
f 116//13 38//13 36//13
f 39//12 121//12 117//12
f 40//4 39//4 37//4
f 120//14 40//14 38//14
f 41//12 125//12 121//12
f 42//4 41//4 39//4
f 124//15 42//15 40//15
f 43//12 129//12 125//12
f 44//4 43//4 41//4
f 128//16 44//16 42//16
f 45//12 133//12 129//12
f 46//4 45//4 43//4
f 132//17 46//17 44//17
f 47//12 137//12 133//12
f 48//4 47//4 45//4
f 136//18 48//18 46//18
f 49//12 141//12 137//12
f 50//4 49//4 47//4
f 140//18 50//18 48//18
f 143//19 51//19 50//19
f 145//20 52//20 51//20
f 147//21 53//21 52//21
f 149//22 54//22 53//22
f 151//23 55//23 54//23
f 153//24 56//24 55//24
f 153//1 58//1 57//1
f 141//42 49//42 57//42
f 57//4 49//4 56//4
f 50//4 51//4 52//4
f 50//4 52//4 53//4
f 56//4 49//4 55//4
f 55//4 49//4 50//4
f 50//4 53//4 54//4
f 51//26 143//26 60//26
f 70//27 69//27 63//27
f 63//4 69//4 67//4
f 112//18 36//18 34//18
f 65//28 67//28 68//28
f 69//29 70//29 68//29
f 60//30 66//30 68//30
f 65//31 66//31 60//31
f 68//3 70//3 64//3
f 67//4 65//4 59//4
f 65//4 52//4 51//4
f 61//43 59//43 62//43
f 62//32 64//32 63//32
f 59//43 60//43 62//43
f 80//1 89//1 87//1
f 88//33 91//33 92//33
f 78//4 80//4 75//4
f 72//3 77//3 76//3
f 79//5 78//5 73//5
f 75//1 80//1 81//1
f 92//1 91//1 90//1
f 95//5 94//5 84//5
f 93//3 95//3 82//3
f 94//34 92//34 89//34
f 90//3 86//3 95//3
f 96//3 85//3 86//3
f 82//5 84//5 78//5
f 89//1 92//1 93//1
f 86//5 88//5 94//5
f 84//35 89//35 80//35
f 87//3 82//3 79//3
f 85//5 83//5 88//5
f 91//1 97//1 96//1
f 83//36 97//36 91//36
f 98//37 101//37 97//37
f 99//5 98//5 83//5
f 97//1 101//1 100//1
f 100//3 99//3 85//3
f 103//5 102//5 98//5
f 101//1 105//1 104//1
f 102//38 105//38 101//38
f 104//3 103//3 99//3
f 106//4 108//4 105//4
f 107//11 106//11 102//11
f 105//5 80//5 92//5
f 75//5 80//5 109//5
f 89//5 92//5 80//5
f 91//5 97//5 105//5
f 101//5 105//5 97//5
f 80//5 105//5 109//5
f 79//3 74//3 110//3
f 104//3 111//3 107//3
f 112//1 111//1 104//1
f 113//39 117//39 114//39
f 110//3 114//3 115//3
f 111//13 115//13 116//13
f 117//39 121//39 118//39
f 114//3 118//3 119//3
f 115//14 119//14 120//14
f 121//39 125//39 122//39
f 118//3 122//3 123//3
f 119//15 123//15 124//15
f 125//39 129//39 126//39
f 122//3 126//3 127//3
f 123//16 127//16 128//16
f 129//39 133//39 130//39
f 126//3 130//3 131//3
f 127//17 131//17 132//17
f 133//39 137//39 134//39
f 130//3 134//3 135//3
f 131//18 135//18 136//18
f 137//39 141//39 138//39
f 134//3 138//3 139//3
f 135//18 139//18 140//18
f 139//19 142//19 143//19
f 142//20 144//20 145//20
f 144//21 146//21 147//21
f 146//22 148//22 149//22
f 148//23 150//23 151//23
f 150//24 152//24 153//24
f 153//1 152//1 154//1
f 141//25 155//25 154//25
f 139//3 138//3 150//3
f 138//3 154//3 152//3
f 144//3 142//3 139//3
f 146//3 144//3 139//3
f 138//3 152//3 150//3
f 148//3 146//3 139//3
f 142//26 156//26 157//26
f 160//27 166//27 167//27
f 160//3 158//3 164//3
f 107//18 111//18 112//18
f 162//28 163//28 165//28
f 165//29 167//29 166//29
f 157//41 159//41 165//41
f 157//31 163//31 162//31
f 161//4 167//4 165//4
f 156//3 162//3 164//3
f 142//3 144//3 162//3
f 157//43 156//43 159//43
f 158//32 160//32 161//32
f 159//43 156//43 158//43
l 112 108
l 109 113
