# Blender v2.78 (sub 0) OBJ File: 'gabelstapler.blend'
# www.blender.org
mtllib stapler_gabel_stift_l.mtl
o Gabel_l_Cube.13_1.002
v -2.207870 0.162294 -10.249346
v -2.207871 0.162294 -6.409035
v -2.207871 0.224104 -6.409035
v -2.207871 0.372617 -6.557549
v -2.207870 0.372617 -10.249346
v -2.207871 0.310807 -6.138387
v -1.306390 0.310808 -6.138387
v -1.306390 0.372617 -6.138387
v -2.207871 0.372617 -6.138387
v -1.306390 0.162294 -6.409035
v -1.306390 0.162294 -10.249346
v -1.306390 0.372617 -10.249346
v -1.306390 0.372617 -6.557549
v -1.306390 0.224104 -6.409035
v -1.604990 0.162294 -11.368887
v -1.909270 0.162294 -11.368887
v -1.909270 0.271821 -11.368595
v -1.604990 0.271821 -11.368595
v -2.124073 0.162294 -11.172696
v -2.054728 0.162294 -11.312458
v -1.459533 0.162294 -11.312458
v -1.390187 0.162294 -11.172696
v -2.124073 0.286936 -11.172988
v -1.390187 0.286937 -11.172988
v -1.459533 0.276168 -11.312333
v -2.054728 0.276168 -11.312333
v -1.306390 0.162294 -6.286901
v -2.207871 0.162294 -6.286901
v -1.306390 0.372617 -6.260522
v -1.306390 0.205793 -6.181885
v -1.306391 4.221144 -6.409035
v -2.207871 4.221144 -6.409035
v -2.207871 4.221144 -6.138387
v -1.306391 4.221144 -6.138387
v -2.207871 0.205793 -6.181885
v -2.207871 0.372617 -6.260522
v -1.306390 0.521131 -6.409035
v -2.207871 0.521131 -6.409035
v -2.207871 0.416116 -6.452533
v -1.306390 0.416116 -6.452533
vn -1.0000 0.0000 -0.0000
vn 0.0000 0.0000 1.0000
vn 1.0000 0.0000 0.0000
vn -0.0000 0.0027 -1.0000
vn -0.0000 1.0000 -0.0000
vn 0.0000 -1.0000 0.0000
vn -0.9959 -0.0001 -0.0904
vn -0.0000 0.9959 -0.0903
vn 0.9959 -0.0001 -0.0904
vn 0.0000 0.0000 -1.0000
vn 0.0000 -0.9239 0.3827
vn -0.0000 0.9239 -0.3827
vn -0.0000 -0.3827 0.9239
vn -0.0000 0.3827 -0.9239
vn 0.3612 0.0017 -0.9325
vn -0.8955 -0.0003 -0.4450
vn 0.8955 -0.0003 -0.4450
vn -0.3612 0.0017 -0.9325
usemtl default.001
s off
f 1//1 2//1 3//1 4//1 5//1
f 6//2 7//2 8//2 9//2
f 10//3 11//3 12//3 13//3 14//3
f 15//4 16//4 17//4 18//4
f 5//5 4//5 13//5 12//5
f 11//6 10//6 2//6 1//6
f 11//6 1//6 19//6 20//6 16//6 15//6 21//6 22//6
f 1//7 5//7 23//7 19//7
f 5//8 12//8 24//8 25//8 18//8 17//8 26//8 23//8
f 12//9 11//9 22//9 24//9
f 2//6 10//6 27//6 28//6
f 10//3 14//3 29//3 8//3 7//3 30//3 27//3
f 31//5 32//5 33//5 34//5
f 3//1 2//1 28//1 35//1 6//1 9//1 36//1
f 37//10 38//10 32//10 31//10
f 36//1 9//1 33//1 32//1 38//1
f 9//2 8//2 34//2 33//2
f 8//3 29//3 37//3 31//3 34//3
f 28//11 27//11 30//11 35//11
f 13//12 4//12 39//12 40//12
f 37//3 29//3 14//3 13//3 40//3
f 38//1 39//1 4//1 3//1 36//1
f 35//13 30//13 7//13 6//13
f 40//14 39//14 38//14 37//14
f 15//15 18//15 25//15 21//15
f 19//16 23//16 26//16 20//16
f 21//17 25//17 24//17 22//17
f 20//18 26//18 17//18 16//18
