# Blender v2.78 (sub 0) OBJ File: 'gabelstapler_allesgenullt.blend'
# www.blender.org
mtllib stapler_sitz_1.mtl
o Sitz_1_Cube.000
v -1.393556 7.309045 2.442394
v 1.393556 7.309045 2.442394
v 1.393556 3.860297 2.222447
v -1.393556 3.860297 2.222446
v 1.393556 3.689441 0.083428
v -1.393556 3.689430 0.083427
v -1.393556 4.315310 2.240133
v 1.393556 4.315320 2.240134
vn 0.0000 -0.0636 0.9980
vn 0.0000 -0.9604 0.2787
usemtl Mat.008
s off
f 4//1 2//1 1//1
f 5//2 7//2 6//2
f 4//1 3//1 2//1
f 5//2 8//2 7//2
