# Blender v2.78 (sub 0) OBJ File: 'gabelstapler.blend'
# www.blender.org
mtllib stapler_gabel_halter.mtl
o Gabel_halter_Cube.13_1
v 1.872902 2.552657 -6.064540
v 1.872902 2.927598 -6.064540
v 1.872902 2.927598 -5.842667
v 1.872902 2.552657 -5.842667
v -1.888977 2.927598 -5.842667
v -1.888977 2.552656 -5.842667
v -1.888977 2.927598 -6.064540
v -1.888977 2.552656 -6.064540
v 1.872902 3.517406 -6.064540
v 1.872902 3.892348 -6.064540
v 1.872902 3.892348 -5.842667
v 1.872902 3.517406 -5.842667
v -1.888978 3.892347 -5.842667
v -1.888978 3.517406 -5.842667
v -1.888978 3.892347 -6.064540
v -1.888978 3.517406 -6.064540
v -1.339956 4.926292 -6.154895
v -1.200837 4.926292 -6.154895
v -1.200837 4.926292 -5.764723
v -1.339956 4.926292 -5.764723
v -1.200838 6.846253 -5.764723
v -1.339956 6.846253 -5.764723
v -1.200838 6.846253 -6.154895
v -1.339956 6.846253 -6.154895
v -0.708774 4.926292 -6.154895
v -0.569656 4.926292 -6.154895
v -0.569656 4.926292 -5.764723
v -0.708774 4.926292 -5.764723
v -0.569656 6.846253 -5.764723
v -0.708774 6.846253 -5.764723
v -0.569656 6.846253 -6.154895
v -0.708774 6.846253 -6.154895
v -0.077592 4.926292 -6.154895
v 0.061526 4.926292 -6.154895
v 0.061526 4.926292 -5.764723
v -0.077592 4.926292 -5.764723
v 0.061526 6.846253 -5.764723
v -0.077593 6.846253 -5.764723
v 0.061526 6.846253 -6.154895
v -0.077593 6.846253 -6.154895
v 0.553589 4.926292 -6.154895
v 0.692707 4.926292 -6.154895
v 0.692707 4.926292 -5.764723
v 0.553589 4.926292 -5.764723
v 0.692707 6.846253 -5.764723
v 0.553589 6.846253 -5.764723
v 0.692707 6.846253 -6.154895
v 0.553589 6.846253 -6.154895
v 1.184771 4.926292 -6.154895
v 1.323889 4.926292 -6.154895
v 1.323889 4.926292 -5.764723
v 1.184771 4.926292 -5.764723
v 1.323889 6.846253 -5.764723
v 1.184771 6.846253 -5.764723
v 1.323889 6.846253 -6.154895
v 1.184771 6.846253 -6.154895
v 1.872901 4.647403 -6.148690
v 1.872901 4.990855 -6.148690
v 1.872901 4.990855 -5.758517
v 1.872901 4.647403 -5.758517
v -1.888978 4.990854 -5.758517
v -1.888978 4.647402 -5.758517
v -1.888978 4.990854 -6.148690
v -1.888978 4.647402 -6.148690
v 1.872902 1.599115 -6.064540
v 1.872902 1.974056 -6.064540
v 1.872902 1.974056 -5.842667
v 1.872902 1.599115 -5.842667
v -1.888977 1.974055 -5.842667
v -1.888977 1.599114 -5.842667
v -1.888977 1.974055 -6.064540
v -1.888977 1.599114 -6.064540
v -2.152266 0.837615 -5.758517
v -1.888946 1.100934 -5.758517
v -1.888983 6.064461 -5.758517
v -2.152231 6.070605 -5.758517
v -1.888946 1.100934 -6.148690
v -1.888983 6.064461 -6.148690
v -2.152266 0.837615 -6.148690
v -2.152231 6.070605 -6.148690
v -1.881571 6.222417 -5.758517
v -2.143985 6.247952 -5.758517
v -1.881571 6.222417 -6.148690
v -2.143985 6.247952 -6.148690
v -1.864095 6.340168 -5.758517
v -2.122600 6.392038 -5.758517
v -1.864095 6.340168 -6.148690
v -2.122600 6.392038 -6.148690
v -1.842646 6.424623 -5.758517
v -2.094377 6.503166 -5.758517
v -1.842646 6.424623 -6.148690
v -2.094377 6.503166 -6.148690
v -1.813863 6.501988 -5.758517
v -2.055669 6.607210 -5.758517
v -1.813863 6.501988 -6.148690
v -2.055669 6.607210 -6.148690
v -1.788628 6.552324 -5.758517
v -2.017869 6.682611 -5.758517
v -1.788628 6.552324 -6.148690
v -2.017869 6.682611 -6.148690
v -1.759240 6.598281 -5.758517
v -1.973017 6.752750 -5.758517
v -1.759240 6.598281 -6.148690
v -1.973017 6.752750 -6.148690
v -1.726015 6.639159 -5.758517
v -1.920292 6.817620 -5.758517
v -1.726015 6.639159 -6.148690
v -1.920292 6.817620 -6.148690
v -1.688618 6.675228 -5.758517
v -1.859521 6.876232 -5.758517
v -1.688618 6.675228 -6.148690
v -1.859521 6.876232 -6.148690
v -1.646441 6.706758 -5.758517
v -1.790806 6.927601 -5.758517
v -1.646441 6.706758 -6.148690
v -1.790806 6.927601 -6.148690
v -1.598634 6.733877 -5.758517
v -1.714490 6.970893 -5.758517
v -1.598634 6.733877 -6.148690
v -1.714490 6.970893 -6.148690
v -1.544239 6.756447 -5.758517
v -1.631026 7.005525 -5.758517
v -1.544239 6.756447 -6.148690
v -1.631026 7.005525 -6.148690
v -1.482339 6.774063 -5.758517
v -1.540823 7.031193 -5.758517
v -1.482339 6.774063 -6.148690
v -1.540823 7.031193 -6.148690
v -1.411182 6.786392 -5.758517
v -1.445128 7.047515 -5.758517
v -1.411182 6.786392 -6.148690
v -1.445128 7.047515 -6.148690
v -1.360630 6.790827 -5.758517
v -1.376001 7.053698 -5.758517
v -1.360630 6.790827 -6.148690
v -1.376001 7.053698 -6.148690
v -1.303146 6.792410 -5.758517
v -1.306875 7.055703 -5.758517
v -1.303146 6.792410 -6.148690
v -1.306875 7.055703 -6.148690
v 1.286123 6.792426 -5.758517
v 1.291764 7.055686 -5.758517
v 1.286123 6.792426 -6.148690
v 1.291764 7.055686 -6.148690
v 1.370791 6.788767 -5.758517
v 1.394402 7.051315 -5.758517
v 1.370791 6.788767 -6.148690
v 1.394402 7.051315 -6.148690
v 1.443834 6.778731 -5.758517
v 1.493240 7.037737 -5.758517
v 1.443834 6.778731 -6.148690
v 1.493240 7.037737 -6.148690
v 1.508414 6.762898 -5.758517
v 1.585624 7.015086 -5.758517
v 1.508414 6.762898 -6.148690
v 1.585624 7.015086 -6.148690
v 1.565215 6.741922 -5.758517
v 1.671373 6.983420 -5.758517
v 1.565215 6.741922 -6.148690
v 1.671373 6.983420 -6.148690
v 1.615111 6.716290 -5.758517
v 1.750124 6.942965 -5.758517
v 1.615111 6.716290 -6.148690
v 1.750124 6.942965 -6.148690
v 1.659061 6.686232 -5.758517
v 1.821419 6.894207 -5.758517
v 1.659061 6.686232 -6.148690
v 1.821419 6.894207 -6.148690
v 1.697971 6.651702 -5.758517
v 1.884863 6.837903 -5.758517
v 1.697971 6.651702 -6.148690
v 1.884863 6.837903 -6.148690
v 1.732536 6.612461 -5.758517
v 1.940264 6.775007 -5.758517
v 1.732536 6.612461 -6.148690
v 1.940264 6.775007 -6.148690
v 1.763181 6.568222 -5.758517
v 1.987706 6.706520 -5.758517
v 1.763181 6.568222 -6.148690
v 1.987706 6.706520 -6.148690
v 1.790084 6.518781 -5.758517
v 2.027516 6.633358 -5.758517
v 1.790084 6.518781 -6.148690
v 2.027516 6.633358 -6.148690
v 1.812915 6.464912 -5.758517
v 2.060531 6.555461 -5.758517
v 1.812915 6.464912 -6.148690
v 2.060531 6.555461 -6.148690
v 1.838240 6.383124 -5.758517
v 2.093638 6.448543 -5.758517
v 1.838240 6.383124 -6.148690
v 2.093638 6.448543 -6.148690
v 1.856552 6.293930 -5.758517
v 2.116538 6.335698 -5.758517
v 1.856552 6.293930 -6.148690
v 2.116538 6.335698 -6.148690
v 1.867882 6.197731 -5.758517
v 2.130403 6.218221 -5.758517
v 1.867882 6.197731 -6.148690
v 2.130403 6.218221 -6.148690
v 1.872905 6.065005 -5.758517
v 2.136176 6.070063 -5.758517
v 1.872905 6.065005 -6.148690
v 2.136176 6.070063 -6.148690
v 1.872881 1.100935 -5.758517
v 2.136201 0.837615 -5.758517
v 1.872881 1.100935 -6.148690
v 2.136201 0.837615 -6.148690
vn 0.0000 -1.0000 0.0000
vn 0.0000 0.0000 1.0000
vn 0.0000 1.0000 0.0000
vn 0.0000 0.0000 -1.0000
vn 1.0000 0.0000 0.0000
vn -1.0000 -0.0000 -0.0000
vn 0.9989 -0.0469 0.0000
vn -0.9989 0.0464 0.0000
vn 0.9892 -0.1468 0.0000
vn -0.9892 0.1468 0.0000
vn 0.9692 -0.2462 0.0000
vn -0.9692 0.2462 0.0000
vn 0.9372 -0.3487 0.0000
vn -0.9372 0.3487 0.0000
vn 0.8940 -0.4482 0.0000
vn -0.8940 0.4482 -0.0000
vn 0.8425 -0.5387 0.0000
vn -0.8425 0.5387 0.0000
vn 0.7760 -0.6307 0.0000
vn -0.7760 0.6307 0.0000
vn 0.6942 -0.7198 0.0000
vn -0.6942 0.7198 0.0000
vn 0.5988 -0.8009 0.0000
vn -0.5988 0.8009 0.0000
vn 0.4934 -0.8698 0.0000
vn -0.4934 0.8698 0.0000
vn 0.3833 -0.9236 0.0000
vn -0.3832 0.9236 0.0000
vn 0.2737 -0.9618 0.0000
vn -0.2737 0.9618 0.0000
vn 0.1707 -0.9853 0.0000
vn -0.1681 0.9858 -0.0000
vn 0.0874 -0.9962 0.0000
vn -0.0891 0.9960 -0.0000
vn 0.0275 -0.9996 0.0000
vn -0.0290 0.9996 -0.0000
vn -0.0432 -0.9991 0.0000
vn 0.0425 0.9991 -0.0000
vn -0.1361 -0.9907 0.0000
vn 0.1361 0.9907 -0.0000
vn -0.2381 -0.9712 0.0000
vn 0.2381 0.9712 0.0000
vn -0.3464 -0.9381 0.0000
vn 0.3464 0.9381 0.0000
vn -0.4569 -0.8895 0.0000
vn 0.4569 0.8895 0.0000
vn -0.5645 -0.8254 0.0000
vn 0.5645 0.8254 0.0000
vn -0.6638 -0.7479 0.0000
vn 0.6638 0.7479 0.0000
vn -0.7504 -0.6610 0.0000
vn 0.7504 0.6610 0.0000
vn -0.8220 -0.5694 0.0000
vn 0.8220 0.5694 0.0000
vn -0.8784 -0.4780 0.0000
vn 0.8784 0.4780 0.0000
vn -0.9207 -0.3902 0.0000
vn 0.9207 0.3902 0.0000
vn -0.9553 -0.2958 0.0000
vn 0.9553 0.2958 0.0000
vn -0.9796 -0.2011 -0.0000
vn 0.9800 0.1989 0.0000
vn -0.9931 -0.1170 0.0000
vn 0.9931 0.1172 0.0000
vn -0.9993 -0.0378 0.0000
vn 0.9992 0.0389 0.0000
usemtl default.001
s off
f 17//1 18//1 19//1 20//1
f 20//2 19//2 21//2 22//2
f 22//3 21//3 23//3 24//3
f 24//4 23//4 18//4 17//4
f 18//5 23//5 21//5 19//5
f 24//6 17//6 20//6 22//6
f 25//1 26//1 27//1 28//1
f 28//2 27//2 29//2 30//2
f 30//3 29//3 31//3 32//3
f 32//4 31//4 26//4 25//4
f 26//5 31//5 29//5 27//5
f 32//6 25//6 28//6 30//6
f 33//1 34//1 35//1 36//1
f 36//2 35//2 37//2 38//2
f 38//3 37//3 39//3 40//3
f 40//4 39//4 34//4 33//4
f 34//5 39//5 37//5 35//5
f 40//6 33//6 36//6 38//6
f 41//1 42//1 43//1 44//1
f 44//2 43//2 45//2 46//2
f 46//3 45//3 47//3 48//3
f 48//4 47//4 42//4 41//4
f 42//5 47//5 45//5 43//5
f 48//6 41//6 44//6 46//6
f 49//1 50//1 51//1 52//1
f 52//2 51//2 53//2 54//2
f 54//3 53//3 55//3 56//3
f 56//4 55//4 50//4 49//4
f 50//5 55//5 53//5 51//5
f 56//6 49//6 52//6 54//6
f 73//2 74//2 75//2 76//2
f 74//5 77//5 78//5 75//5
f 77//4 79//4 80//4 78//4
f 79//6 73//6 76//6 80//6
f 76//2 75//2 81//2 82//2
f 75//7 78//7 83//7 81//7
f 78//4 80//4 84//4 83//4
f 80//8 76//8 82//8 84//8
f 82//2 81//2 85//2 86//2
f 81//9 83//9 87//9 85//9
f 83//4 84//4 88//4 87//4
f 84//10 82//10 86//10 88//10
f 86//2 85//2 89//2 90//2
f 85//11 87//11 91//11 89//11
f 87//4 88//4 92//4 91//4
f 88//12 86//12 90//12 92//12
f 90//2 89//2 93//2 94//2
f 89//13 91//13 95//13 93//13
f 91//4 92//4 96//4 95//4
f 92//14 90//14 94//14 96//14
f 94//2 93//2 97//2 98//2
f 93//15 95//15 99//15 97//15
f 95//4 96//4 100//4 99//4
f 96//16 94//16 98//16 100//16
f 98//2 97//2 101//2 102//2
f 97//17 99//17 103//17 101//17
f 99//4 100//4 104//4 103//4
f 100//18 98//18 102//18 104//18
f 102//2 101//2 105//2 106//2
f 101//19 103//19 107//19 105//19
f 103//4 104//4 108//4 107//4
f 104//20 102//20 106//20 108//20
f 106//2 105//2 109//2 110//2
f 105//21 107//21 111//21 109//21
f 107//4 108//4 112//4 111//4
f 108//22 106//22 110//22 112//22
f 110//2 109//2 113//2 114//2
f 109//23 111//23 115//23 113//23
f 111//4 112//4 116//4 115//4
f 112//24 110//24 114//24 116//24
f 114//2 113//2 117//2 118//2
f 113//25 115//25 119//25 117//25
f 115//4 116//4 120//4 119//4
f 116//26 114//26 118//26 120//26
f 118//2 117//2 121//2 122//2
f 117//27 119//27 123//27 121//27
f 119//4 120//4 124//4 123//4
f 120//28 118//28 122//28 124//28
f 122//2 121//2 125//2 126//2
f 121//29 123//29 127//29 125//29
f 123//4 124//4 128//4 127//4
f 124//30 122//30 126//30 128//30
f 126//2 125//2 129//2 130//2
f 125//31 127//31 131//31 129//31
f 127//4 128//4 132//4 131//4
f 128//32 126//32 130//32 132//32
f 130//2 129//2 133//2 134//2
f 129//33 131//33 135//33 133//33
f 131//4 132//4 136//4 135//4
f 132//34 130//34 134//34 136//34
f 134//2 133//2 137//2 138//2
f 133//35 135//35 139//35 137//35
f 135//4 136//4 140//4 139//4
f 136//36 134//36 138//36 140//36
f 138//2 137//2 141//2 142//2
f 137//1 139//1 143//1 141//1
f 139//4 140//4 144//4 143//4
f 140//3 138//3 142//3 144//3
f 142//2 141//2 145//2 146//2
f 141//37 143//37 147//37 145//37
f 143//4 144//4 148//4 147//4
f 144//38 142//38 146//38 148//38
f 146//2 145//2 149//2 150//2
f 145//39 147//39 151//39 149//39
f 147//4 148//4 152//4 151//4
f 148//40 146//40 150//40 152//40
f 150//2 149//2 153//2 154//2
f 149//41 151//41 155//41 153//41
f 151//4 152//4 156//4 155//4
f 152//42 150//42 154//42 156//42
f 154//2 153//2 157//2 158//2
f 153//43 155//43 159//43 157//43
f 155//4 156//4 160//4 159//4
f 156//44 154//44 158//44 160//44
f 158//2 157//2 161//2 162//2
f 157//45 159//45 163//45 161//45
f 159//4 160//4 164//4 163//4
f 160//46 158//46 162//46 164//46
f 162//2 161//2 165//2 166//2
f 161//47 163//47 167//47 165//47
f 163//4 164//4 168//4 167//4
f 164//48 162//48 166//48 168//48
f 166//2 165//2 169//2 170//2
f 165//49 167//49 171//49 169//49
f 167//4 168//4 172//4 171//4
f 168//50 166//50 170//50 172//50
f 170//2 169//2 173//2 174//2
f 169//51 171//51 175//51 173//51
f 171//4 172//4 176//4 175//4
f 172//52 170//52 174//52 176//52
f 174//2 173//2 177//2 178//2
f 173//53 175//53 179//53 177//53
f 175//4 176//4 180//4 179//4
f 176//54 174//54 178//54 180//54
f 178//2 177//2 181//2 182//2
f 177//55 179//55 183//55 181//55
f 179//4 180//4 184//4 183//4
f 180//56 178//56 182//56 184//56
f 182//2 181//2 185//2 186//2
f 181//57 183//57 187//57 185//57
f 183//4 184//4 188//4 187//4
f 184//58 182//58 186//58 188//58
f 186//2 185//2 189//2 190//2
f 185//59 187//59 191//59 189//59
f 187//4 188//4 192//4 191//4
f 188//60 186//60 190//60 192//60
f 190//2 189//2 193//2 194//2
f 189//61 191//61 195//61 193//61
f 191//4 192//4 196//4 195//4
f 192//62 190//62 194//62 196//62
f 194//2 193//2 197//2 198//2
f 193//63 195//63 199//63 197//63
f 195//4 196//4 200//4 199//4
f 196//64 194//64 198//64 200//64
f 198//2 197//2 201//2 202//2
f 197//65 199//65 203//65 201//65
f 199//4 200//4 204//4 203//4
f 200//66 198//66 202//66 204//66
f 202//2 201//2 205//2 206//2
f 201//6 203//6 207//6 205//6
f 203//4 204//4 208//4 207//4
f 204//5 202//5 206//5 208//5
f 206//2 205//2 74//2 73//2
f 205//3 207//3 77//3 74//3
f 207//4 208//4 79//4 77//4
f 208//1 206//1 73//1 79//1
usemtl Mat.007
f 1//5 2//5 3//5 4//5
f 4//2 3//2 5//2 6//2
f 6//6 5//6 7//6 8//6
f 8//4 7//4 2//4 1//4
f 2//3 7//3 5//3 3//3
f 8//1 1//1 4//1 6//1
f 9//5 10//5 11//5 12//5
f 12//2 11//2 13//2 14//2
f 14//6 13//6 15//6 16//6
f 16//4 15//4 10//4 9//4
f 10//3 15//3 13//3 11//3
f 16//1 9//1 12//1 14//1
f 57//5 58//5 59//5 60//5
f 60//2 59//2 61//2 62//2
f 62//6 61//6 63//6 64//6
f 64//4 63//4 58//4 57//4
f 58//3 63//3 61//3 59//3
f 64//1 57//1 60//1 62//1
f 65//5 66//5 67//5 68//5
f 68//2 67//2 69//2 70//2
f 70//6 69//6 71//6 72//6
f 72//4 71//4 66//4 65//4
f 66//3 71//3 69//3 67//3
f 72//1 65//1 68//1 70//1
