# Blender v2.78 (sub 0) OBJ File: 'gabelstapler_allesgenullt.blend'
# www.blender.org
mtllib stapler_abcsaeulen.mtl
o ABC_saeulen_Roof
v 3.214916 10.373747 -3.038774
v 3.214916 10.417150 -3.086264
v 3.214916 10.417150 -2.411046
v 3.214916 10.373747 -2.459734
v 3.171512 10.373747 2.315479
v 3.214916 10.417150 2.315479
v 2.679803 10.417150 2.315479
v 2.723207 10.373746 2.315479
v -3.214916 10.417149 -3.086264
v -3.214916 10.373745 -3.038765
v -3.214916 10.373745 -2.459725
v -3.214916 10.417149 -2.411047
v 3.171512 10.373747 -3.086264
v 2.723207 10.373746 -3.086264
v 2.679803 10.417150 -3.086264
v -3.214916 9.365552 2.286987
v -3.214915 3.447904 2.455346
v -3.214915 3.447904 3.043720
v -3.214916 9.365552 2.868280
v 2.636399 10.373746 2.315479
v 2.636400 10.373746 -3.086264
v 2.679803 10.373746 -3.038774
v 2.679803 10.373746 -2.459734
v 2.636400 10.373746 -2.411047
v -3.214916 10.417149 2.315478
v -3.171513 10.373745 2.315478
v -2.723207 10.373746 2.315479
v -2.679804 10.417150 2.315479
v -2.723207 9.365553 2.240025
v -2.723206 3.447904 2.411924
v -3.171512 3.447904 2.411924
v -3.171513 9.365552 2.240025
v -2.679804 10.417150 -3.086264
v -2.723207 10.373746 -3.086264
v -3.171513 10.373745 -3.086264
v 3.214916 10.373747 2.264976
v 3.214916 10.373747 1.690764
v 3.214916 10.417150 1.640261
v 3.171513 3.447905 2.411924
v 3.214917 3.447905 2.455346
v 3.214917 3.447905 3.043720
v 3.171513 3.447905 3.087142
v 2.723208 3.447905 3.087142
v 2.679804 3.447905 3.043720
v 2.679804 3.447905 2.455346
v 2.723208 3.447905 2.411924
v 2.636400 10.373746 1.640261
v 2.679803 10.373746 1.690764
v 2.679803 10.373746 2.264975
v -2.679803 3.447904 2.455346
v -2.679803 3.447904 3.043720
v -2.723206 3.447904 3.087142
v -3.171512 3.447904 3.087142
v -3.214916 10.417149 1.640261
v -3.214916 10.373745 1.690763
v -3.214916 10.373745 2.264975
v -3.214916 10.373745 -2.367643
v -3.214916 10.373745 1.596857
v -3.171513 10.373745 1.640261
v -3.171513 10.373745 -2.411047
v -2.723207 10.373746 -2.411047
v -2.679804 10.373746 -2.367643
v -2.679804 10.373746 1.596857
v -2.723207 10.373746 1.640261
v 2.679803 10.373746 -2.367643
v 2.679803 10.373746 1.596857
v 2.723207 10.373746 1.640261
v 2.723207 10.373746 -2.411047
v 3.171512 10.373747 -2.411046
v 3.214916 10.373747 -2.367643
v 3.214916 10.373747 1.596857
v 3.171512 10.373747 1.640261
v 2.679804 8.343594 -3.940334
v 2.679804 8.208665 -3.559932
v 2.723207 8.194092 -3.518847
v 3.171513 8.194093 -3.518847
v 3.214916 8.208666 -3.559932
v 3.214916 8.343595 -3.940334
v 3.171513 8.358129 -3.981312
v 2.723207 8.358128 -3.981312
v 3.171513 6.700145 -4.510039
v 2.723207 6.700145 -4.510039
v 3.214916 6.600693 -4.084943
v 3.214916 6.690241 -4.467710
v 2.679804 6.690241 -4.467710
v 2.679804 6.600693 -4.084943
v 2.723207 6.590787 -4.042601
v 3.171513 6.590787 -4.042601
v 3.171514 1.996190 -5.234129
v 2.723208 1.996190 -5.234129
v 3.214917 2.124561 -4.716364
v 3.214917 1.981024 -5.193147
v 2.679805 1.981024 -5.193147
v 2.679805 2.124561 -4.716364
v 2.723208 2.109352 -4.675266
v 3.171514 2.109352 -4.675266
v -2.636400 10.373746 2.315479
v -2.679804 10.373746 2.264975
v -2.679804 10.373746 1.690763
v -2.636400 10.373746 1.640261
v -2.636400 10.373746 -2.411047
v -2.679804 10.373746 -2.459724
v -2.679804 10.373746 -3.038764
v -2.636400 10.373746 -3.086264
v -3.171513 9.365552 2.915243
v -2.723207 9.365553 2.915243
v -2.678733 8.208274 -3.558829
v -2.678733 8.343946 -3.941331
v -3.172583 8.193763 -3.517923
v -2.722136 8.193764 -3.517923
v -2.679804 9.365553 2.868280
v -2.679804 9.365553 2.286988
v -3.215986 8.208273 -3.558829
v -3.215986 8.343946 -3.941331
v -3.172583 8.358455 -3.982237
v -2.722136 8.358456 -3.982237
v -2.723207 6.700144 -4.510039
v -3.171512 6.700144 -4.510039
v -3.214916 6.690256 -4.467776
v -3.214916 6.600673 -4.084863
v -2.679803 6.600673 -4.084863
v -2.679803 6.690256 -4.467776
v -3.171512 6.590786 -4.042601
v -2.723207 6.590786 -4.042601
v -2.723206 1.996189 -5.234129
v -3.171511 1.996189 -5.234129
v -3.214915 1.981023 -5.193147
v -3.214915 2.124560 -4.716364
v -2.679802 2.124560 -4.716364
v -2.679802 1.981023 -5.193147
v -3.171511 2.109351 -4.675266
v -2.723206 2.109351 -4.675266
v 3.171512 9.365554 2.240025
v 2.723207 9.365553 2.240025
v 2.679803 9.365553 2.286988
v 2.679803 9.365553 2.868280
v 2.723207 9.365553 2.915243
v 3.171512 9.365554 2.915243
v 3.214916 9.365554 2.868280
v 3.214916 9.365554 2.286988
vn -1.0000 -0.0000 0.0000
vn 0.0000 -0.0290 -0.9996
vn 0.0000 -1.0000 0.0000
vn 0.0000 -0.4531 0.8915
vn 1.0000 0.0000 0.0000
vn 0.0000 0.4058 -0.9139
vn 0.0000 0.3038 -0.9527
vn -0.0000 -0.3105 0.9506
vn 0.0000 0.1521 -0.9884
vn 0.0000 -0.1398 0.9902
vn -0.0000 0.0290 0.9996
vn 1.0000 0.0005 0.0002
vn 0.0000 -0.4527 0.8916
vn -1.0000 0.0005 0.0002
vn 0.0000 0.3033 -0.9529
vn -1.0000 -0.0006 -0.0002
vn 1.0000 -0.0006 -0.0001
vn 0.0000 -0.3111 0.9504
vn 0.0000 -0.5113 -0.8594
vn -0.0000 0.5113 0.8594
vn -0.0000 0.4062 -0.9138
vn -0.7071 -0.0201 -0.7068
vn -0.7071 0.0205 0.7068
vn 0.7342 -0.0197 -0.6786
vn -0.7071 0.2870 -0.6462
vn -0.7071 -0.3204 0.6304
vn 0.7057 -0.3210 0.6317
vn 0.7067 0.2872 -0.6467
vn 0.7066 0.2150 -0.6742
vn -0.7075 0.2147 -0.6733
vn 0.7065 -0.2197 0.6728
vn -0.7085 -0.2191 0.6708
vn 0.7066 0.1077 -0.6994
vn -0.7023 0.1084 -0.7036
vn 0.7064 -0.0989 0.7009
vn -0.7023 -0.0995 0.7049
vn 0.7342 0.0201 0.6786
vn 0.7042 -0.3211 0.6333
vn 0.7060 0.2880 -0.6470
vn -0.7072 -0.3198 0.6306
vn -0.7070 0.2876 -0.6461
vn 0.7060 0.2144 -0.6749
vn -0.7069 0.2141 -0.6741
vn -0.7070 -0.2204 0.6720
vn 0.7058 -0.2207 0.6732
vn 0.7061 0.1077 -0.6999
vn 0.7057 -0.0990 0.7016
vn 0.7071 -0.3615 -0.6077
vn -0.6815 -0.3725 -0.6299
vn -0.6810 0.3744 0.6294
vn 0.7066 0.3634 0.6072
vn 0.5939 -0.5939 -0.5428
vn 0.6043 -0.6043 0.5193
vn -0.6043 -0.6043 0.5193
vn -0.5939 -0.5939 -0.5427
vn -0.5939 -0.5939 -0.5428
vn 0.5774 -0.5774 -0.5773
vn -0.5981 -0.5981 0.5333
vn -0.6043 -0.6043 -0.5193
vn 0.6043 -0.6043 -0.5193
vn 0.5939 -0.5939 -0.5427
vn 1.0000 0.0005 0.0000
vn -1.0000 0.0005 0.0000
vn -1.0000 -0.0006 -0.0001
vn 1.0000 -0.0006 -0.0002
vn -0.7342 -0.0197 -0.6786
vn -0.7342 0.0201 0.6786
vn 0.7071 -0.0201 -0.7068
vn -0.7067 0.2871 -0.6467
vn -0.7057 -0.3210 0.6317
vn 0.7071 -0.3204 0.6304
vn 0.7071 0.2870 -0.6463
vn 0.7075 0.2147 -0.6732
vn -0.7066 0.2150 -0.6742
vn 0.7085 -0.2191 0.6708
vn -0.7065 -0.2197 0.6728
vn 0.7023 0.1084 -0.7036
vn -0.7066 0.1077 -0.6994
vn 0.7023 -0.0995 0.7049
vn -0.7064 -0.0989 0.7009
vn 0.7071 0.0205 0.7068
vn 0.7072 -0.3198 0.6306
vn 0.7070 0.2876 -0.6461
vn -0.7042 -0.3211 0.6333
vn -0.7060 0.2880 -0.6470
vn 0.7069 0.2141 -0.6741
vn -0.7060 0.2144 -0.6750
vn -0.7058 -0.2207 0.6732
vn 0.7070 -0.2204 0.6720
vn -0.7061 0.1077 -0.6999
vn -0.7057 -0.0990 0.7016
vn 0.6815 -0.3725 -0.6299
vn -0.7071 -0.3615 -0.6077
vn -0.7066 0.3634 0.6072
vn 0.6810 0.3744 0.6294
vn 0.5982 -0.5982 0.5333
vn -0.5774 -0.5773 -0.5773
vn -0.5774 -0.5773 0.5773
vn 0.5773 -0.5774 0.5773
usemtl Mat.011
s off
f 17//1 19//1 16//1
f 30//2 32//2 29//2
f 42//3 44//3 41//3
f 52//3 18//3 51//3
f 22//1 74//1 23//1
f 68//4 76//4 69//4
f 77//5 1//5 4//5
f 79//6 14//6 13//6
f 80//7 81//7 82//7
f 83//5 78//5 77//5
f 73//1 86//1 74//1
f 87//8 76//8 75//8
f 81//9 90//9 82//9
f 91//5 84//5 83//5
f 85//1 94//1 86//1
f 95//10 88//10 87//10
f 105//11 52//11 106//11
f 103//12 107//12 108//12
f 60//13 110//13 61//13
f 111//5 50//5 112//5
f 113//14 10//14 114//14
f 115//15 117//15 118//15
f 114//16 120//16 113//16
f 108//17 121//17 122//17
f 109//18 124//18 110//18
f 117//9 126//9 118//9
f 119//1 128//1 120//1
f 122//5 129//5 130//5
f 123//10 132//10 124//10
f 133//19 67//19 72//19
f 135//1 49//1 48//1
f 8//20 138//20 5//20
f 36//5 140//5 37//5
f 29//19 59//19 64//19
f 16//1 56//1 55//1
f 26//20 106//20 27//20
f 98//5 112//5 99//5
f 39//2 134//2 133//2
f 45//1 136//1 135//1
f 137//11 42//11 138//11
f 139//5 40//5 140//5
f 35//21 116//21 115//21
f 16//22 31//22 17//22
f 105//23 18//23 53//23
f 112//24 30//24 29//24
f 14//25 73//25 22//25
f 23//26 75//26 68//26
f 4//27 76//27 77//27
f 13//28 78//28 79//28
f 79//29 84//29 81//29
f 80//30 85//30 73//30
f 77//31 88//31 83//31
f 74//32 87//32 75//32
f 84//33 89//33 81//33
f 85//34 90//34 93//34
f 88//35 91//35 83//35
f 87//36 94//36 95//36
f 106//37 51//37 111//37
f 102//38 110//38 107//38
f 34//39 108//39 116//39
f 11//40 109//40 60//40
f 35//41 114//41 10//41
f 116//42 122//42 117//42
f 115//43 119//43 114//43
f 113//44 123//44 109//44
f 107//45 124//45 121//45
f 122//46 125//46 117//46
f 119//34 126//34 127//34
f 123//36 128//36 131//36
f 124//47 129//47 121//47
f 37//48 133//48 72//48
f 48//49 134//49 135//49
f 8//50 136//50 137//50
f 5//51 139//51 36//51
f 99//48 29//48 64//48
f 55//49 32//49 16//49
f 26//50 19//50 105//50
f 27//51 111//51 98//51
f 140//24 39//24 133//24
f 135//22 46//22 45//22
f 137//23 44//23 43//23
f 138//37 41//37 139//37
f 1//52 13//52 2//52
f 5//53 36//53 6//53
f 56//54 26//54 25//54
f 35//55 10//55 9//55
f 49//53 7//53 20//53
f 98//53 28//53 27//53
f 22//56 15//56 14//56
f 69//57 3//57 70//57
f 101//3 61//3 102//3
f 68//3 24//3 23//3
f 60//58 12//58 11//58
f 64//3 100//3 99//3
f 54//59 59//59 55//59
f 72//60 38//60 37//60
f 47//3 67//3 48//3
f 33//61 103//61 34//61
f 17//1 18//1 19//1
f 30//2 31//2 32//2
f 46//3 39//3 40//3
f 40//3 41//3 44//3
f 42//3 43//3 44//3
f 44//3 45//3 40//3
f 46//3 40//3 45//3
f 31//3 30//3 50//3
f 50//3 51//3 18//3
f 52//3 53//3 18//3
f 18//3 17//3 50//3
f 31//3 50//3 17//3
f 22//1 73//1 74//1
f 68//4 75//4 76//4
f 77//5 78//5 1//5
f 79//6 80//6 14//6
f 80//7 79//7 81//7
f 83//5 84//5 78//5
f 73//1 85//1 86//1
f 87//8 88//8 76//8
f 81//9 89//9 90//9
f 91//5 92//5 84//5
f 85//1 93//1 94//1
f 95//10 96//10 88//10
f 105//11 53//11 52//11
f 103//62 102//62 107//62
f 60//13 109//13 110//13
f 111//5 51//5 50//5
f 113//63 11//63 10//63
f 115//15 116//15 117//15
f 114//64 119//64 120//64
f 108//65 107//65 121//65
f 109//18 123//18 124//18
f 117//9 125//9 126//9
f 119//1 127//1 128//1
f 122//5 121//5 129//5
f 123//10 131//10 132//10
f 133//19 134//19 67//19
f 135//1 136//1 49//1
f 8//20 137//20 138//20
f 36//5 139//5 140//5
f 29//19 32//19 59//19
f 16//1 19//1 56//1
f 26//20 105//20 106//20
f 98//5 111//5 112//5
f 39//2 46//2 134//2
f 45//1 44//1 136//1
f 137//11 43//11 42//11
f 139//5 41//5 40//5
f 35//21 34//21 116//21
f 16//66 32//66 31//66
f 105//67 19//67 18//67
f 112//68 50//68 30//68
f 14//69 80//69 73//69
f 23//70 74//70 75//70
f 4//71 69//71 76//71
f 13//72 1//72 78//72
f 79//73 78//73 84//73
f 80//74 82//74 85//74
f 77//75 76//75 88//75
f 74//76 86//76 87//76
f 84//77 92//77 89//77
f 85//78 82//78 90//78
f 88//79 96//79 91//79
f 87//80 86//80 94//80
f 106//81 52//81 51//81
f 102//82 61//82 110//82
f 34//83 103//83 108//83
f 11//84 113//84 109//84
f 35//85 115//85 114//85
f 116//86 108//86 122//86
f 115//87 118//87 119//87
f 113//88 120//88 123//88
f 107//89 110//89 124//89
f 122//77 130//77 125//77
f 119//90 118//90 126//90
f 123//91 120//91 128//91
f 124//79 132//79 129//79
f 37//92 140//92 133//92
f 48//93 67//93 134//93
f 8//94 49//94 136//94
f 5//95 138//95 139//95
f 99//92 112//92 29//92
f 55//93 59//93 32//93
f 26//94 56//94 19//94
f 27//95 106//95 111//95
f 140//68 40//68 39//68
f 135//66 134//66 46//66
f 137//67 136//67 44//67
f 138//81 42//81 41//81
f 49//54 8//54 7//54
f 98//54 97//54 28//54
f 22//52 21//52 15//52
f 69//96 4//96 3//96
f 101//3 62//3 61//3
f 68//3 65//3 24//3
f 60//97 57//97 12//97
f 64//3 63//3 100//3
f 54//98 58//98 59//98
f 72//99 71//99 38//99
f 47//3 66//3 67//3
f 33//55 104//55 103//55
