# Blender v2.78 (sub 0) OBJ File: 'gabelstapler.blend'
# www.blender.org
mtllib box.mtl
o Box_Cube
v 2.162491 5.466462 -2.162491
v 2.162491 1.141479 -2.162491
v 2.162491 5.466462 2.162491
v 2.162491 1.141479 2.162491
v -2.162491 5.466462 -2.162491
v -2.162491 1.141479 -2.162491
v -2.162491 5.466462 2.162491
v -2.162491 1.141479 2.162491
vt -0.0010 0.9990
vt 1.0042 0.0031
vt 1.0010 0.9990
vt 0.0031 0.0010
vt 0.9990 1.0021
vt 0.9958 0.0010
vt 0.0031 0.9990
vt 0.9990 0.0000
vt 0.0021 -0.0010
vt 1.0010 1.0042
vt 0.0052 0.9948
vt 0.0010 1.0021
vt 1.0000 0.0000
vt 1.0000 1.0021
vt 1.0021 1.0031
vt 0.0031 0.0010
vt 0.9990 0.0010
vt 0.0021 0.0063
vt 0.0000 0.0000
vt 0.9979 0.0021
vt 0.0010 0.0031
vt 0.0000 1.0000
vn -1.0000 0.0000 0.0000
vn 0.0000 0.0000 -1.0000
vn 1.0000 0.0000 0.0000
vn 0.0000 0.0000 1.0000
vn 0.0000 -1.0000 0.0000
vn 0.0000 1.0000 0.0000
g Box_Cube_Material
usemtl Material
s off
f 2/1/1 3/2/1 1/3/1
f 4/4/2 7/5/2 3/6/2
f 8/7/3 5/8/3 7/5/3
f 6/9/4 1/10/4 5/11/4
f 7/12/5 1/13/5 3/14/5
f 4/15/6 6/16/6 8/17/6
f 2/1/1 4/18/1 3/2/1
f 4/4/2 8/7/2 7/5/2
f 8/7/3 6/19/3 5/8/3
f 6/9/4 2/20/4 1/10/4
f 7/12/5 5/21/5 1/13/5
f 4/15/6 2/22/6 6/16/6
